<svg id="svg3371" xmlns="http://www.w3.org/2000/svg" viewBox="0 0 1468.1002 370.2"><defs><style>.cls-1,.cls-3{fill:#1a1349;}.cls-2{fill:#fff;}.cls-3{fill-rule:evenodd;}</style></defs><path class="cls-1" d="M620.6,130.6h15v2.8H617.4V101.3h3.3v29.3Z" transform="translate(-73.6 -36.2)"/><path class="cls-1" d="M643.9,133.5h-3.3V101.4h3.3Z" transform="translate(-73.6 -36.2)"/><path class="cls-1" d="M655.9,130.6h17.2v2.8H652.6V101.3h19.8v2.8H655.8v11.1h15.6V118H655.8v12.6Z" transform="translate(-73.6 -36.2)"/><path class="cls-1" d="M690,133.5h-3.3V104.4H676v-2.8h24.7v2.8H690v29.1Z" transform="translate(-73.6 -36.2)"/><path class="cls-1" d="M705.5,121.6V101.4h3.3v19.7c0,5.2,2.2,10.3,8.8,10.3,6.5,0,8.8-5.1,8.8-10.3V101.4h3.3v20.2c0,5.3-2.4,12.7-12,12.7S705.5,126.8,705.5,121.6Z" transform="translate(-73.6 -36.2)"/><path class="cls-1" d="M747.9,129.3h0l10.5-27.9h3.5l-12.3,32.1h-3.5l-12.2-32.1h3.6Z" transform="translate(-73.6 -36.2)"/><path class="cls-1" d="M781,134.3c-9.6,0-16.7-7.1-16.7-16.8s7.1-16.8,16.7-16.8,16.7,7.1,16.7,16.8A16.3227,16.3227,0,0,1,781,134.3Zm0-30.9c-8.2,0-13.2,6.5-13.2,13.9s5,13.9,13.2,13.9,13.2-6.5,13.2-13.9C794.3,110,789.2,103.4,781,103.4Z" transform="translate(-73.6 -36.2)"/><path class="cls-1" d="M820.3,106.6a7.81,7.81,0,0,0-6.6-3.3c-3.2,0-6.8,1.9-6.8,6s3.4,5.1,7,6.3c4.6,1.5,9.5,3,9.5,9.4s-5.4,9.3-10.5,9.3a12.3236,12.3236,0,0,1-10.1-4.8l2.8-2a8.7178,8.7178,0,0,0,7.3,4.1c3.3,0,7.1-2,7.1-6.2,0-4.5-3.8-5.6-7.8-6.9-4.3-1.3-8.7-3.2-8.7-9,0-6.2,5.5-8.9,10.3-8.9,4.3,0,7.5,1.8,9.1,3.9Z" transform="translate(-73.6 -36.2)"/><path class="cls-1" d="M864.8,128.8h0l.1-27.3h3.3v32.1h-4.1l-18.7-27.7h-.1v27.6H842V101.4h4.1Z" transform="translate(-73.6 -36.2)"/><path class="cls-1" d="M876.6,133.5H873l13.8-32.1H890l13.7,32.1H900l-3.6-8.4H880Zm4.8-11.4h14.1l-7-17Z" transform="translate(-73.6 -36.2)"/><path class="cls-1" d="M935.1,128.4c-2.1,3.3-6.2,6-12,6-9.7,0-16.7-7.1-16.7-16.8s7.1-16.8,16.7-16.8c4.7,0,9.2,1.9,11.4,5.1l-2.7,2a10.7211,10.7211,0,0,0-8.7-4.2c-8.2,0-13.3,6.5-13.3,13.9s5.1,13.9,13.3,13.9a10.9848,10.9848,0,0,0,9.5-4.8Z" transform="translate(-73.6 -36.2)"/><path class="cls-1" d="M944.1,133.5h-3.3V101.4h3.3Z" transform="translate(-73.6 -36.2)"/><path class="cls-1" d="M967.8,134.3c-9.6,0-16.7-7.1-16.7-16.8s7.1-16.8,16.7-16.8,16.7,7.1,16.7,16.8S977.4,134.3,967.8,134.3Zm0-30.9c-8.2,0-13.2,6.5-13.2,13.9s5,13.9,13.2,13.9,13.2-6.5,13.2-13.9C981.2,110,976.1,103.4,967.8,103.4Z" transform="translate(-73.6 -36.2)"/><path class="cls-1" d="M1014.4,128.8h0l.1-27.3h3.3v32.1h-4.1L995,106h-.1v27.6h-3.3V101.5h4.1Z" transform="translate(-73.6 -36.2)"/><path class="cls-1" d="M1026.3,133.5h-3.6l13.8-32.1h3.2l13.7,32.1h-3.7l-3.6-8.4h-16.5Zm4.7-11.4h14.1l-7-17Z" transform="translate(-73.6 -36.2)"/><path class="cls-1" d="M1061.7,130.6h15v2.8h-18.2V101.3h3.3l-.1,29.3Z" transform="translate(-73.6 -36.2)"/><path class="cls-1" d="M1085,133.5h-3.3V101.4h3.3Z" transform="translate(-73.6 -36.2)"/><path class="cls-1" d="M1116.5,128.8h0l.1-27.3h3.3v32.1h-4.1L1097.2,106h-.1v27.6h-3.3V101.5h4.1Z" transform="translate(-73.6 -36.2)"/><path class="cls-1" d="M1131.8,130.6H1149v2.8h-20.5V101.3h19.8v2.8h-16.6v11.1h15.6V118h-15.6v12.6Zm7-33.3a2.1122,2.1122,0,0,1-2.1-2.1,2.18,2.18,0,0,1,2.1-2.1,2.1123,2.1123,0,0,1,2.1,2.1A1.9942,1.9942,0,0,1,1138.8,97.3Z" transform="translate(-73.6 -36.2)"/><path class="cls-1" d="M1171.1,106.6a7.81,7.81,0,0,0-6.6-3.3c-3.2,0-6.8,1.9-6.8,6s3.4,5.1,7,6.3c4.6,1.5,9.5,3,9.5,9.4s-5.4,9.3-10.5,9.3a12.3234,12.3234,0,0,1-10.1-4.8l2.8-2a8.7177,8.7177,0,0,0,7.3,4.1c3.3,0,7.1-2,7.1-6.2,0-4.5-3.8-5.6-7.8-6.9-4.3-1.3-8.7-3.2-8.7-9,0-6.2,5.5-8.9,10.3-8.9,4.3,0,7.5,1.8,9.1,3.9Z" transform="translate(-73.6 -36.2)"/><path class="cls-1" d="M1193,101.4h9.6c4.9,0,10.3,1.7,10.3,8.2a6.9466,6.9466,0,0,1-5.7,6.9v.1a7.62,7.62,0,0,1,7.2,8c0,5.3-4.6,8.9-11.9,8.9H1193Zm3.3,14h6.6c3.2,0,6.8-1.3,6.8-5.6,0-4.1-3.5-5.6-7.7-5.6h-5.7v11.2Zm0,15.3h6.1c4.7,0,8.9-1.7,8.9-6.2,0-4.2-3.1-6.3-8.2-6.3h-6.6v12.5Z" transform="translate(-73.6 -36.2)"/><path class="cls-1" d="M1225.3,133.5H1222V101.4h3.3Z" transform="translate(-73.6 -36.2)"/><path class="cls-1" d="M1234,101.4h9.6c4.9,0,10.3,1.7,10.3,8.2a6.9466,6.9466,0,0,1-5.7,6.9v.1a7.62,7.62,0,0,1,7.2,8c0,5.3-4.6,8.9-11.9,8.9H1234Zm3.3,14h6.6c3.2,0,6.8-1.3,6.8-5.6,0-4.1-3.5-5.6-7.7-5.6h-5.7v11.2Zm0,15.3h6.1c4.7,0,8.9-1.7,8.9-6.2,0-4.2-3.1-6.3-8.2-6.3h-6.6v12.5Z" transform="translate(-73.6 -36.2)"/><path class="cls-1" d="M1266.3,130.6h15v2.8H1263V101.3h3.3v29.3Z" transform="translate(-73.6 -36.2)"/><path class="cls-1" d="M1289.6,133.5h-3.3V101.4h3.3Z" transform="translate(-73.6 -36.2)"/><path class="cls-1" d="M1313.4,134.3c-9.6,0-16.7-7.1-16.7-16.8s7.1-16.8,16.7-16.8,16.7,7.1,16.7,16.8A16.3227,16.3227,0,0,1,1313.4,134.3Zm0-30.9c-8.2,0-13.2,6.5-13.2,13.9s5,13.9,13.2,13.9,13.2-6.5,13.2-13.9C1326.6,110,1321.7,103.4,1313.4,103.4Z" transform="translate(-73.6 -36.2)"/><path class="cls-1" d="M1346.1,133.5h-3.3V104.4H1332v-2.8h24.7v2.8H1346v29.1Z" transform="translate(-73.6 -36.2)"/><path class="cls-1" d="M1365.1,130.6h17.2v2.8h-20.5V101.3h19.8v2.8H1365v11.1h15.6V118H1365v12.6Z" transform="translate(-73.6 -36.2)"/><path class="cls-1" d="M1392.1,115.9h0l15.3-14.4h4.7l-16.2,14.6,17.1,17.5h-4.8l-16-17.1h0v17.1h-3.3V101.5h3.3v14.4Z" transform="translate(-73.6 -36.2)"/><path class="cls-1" d="M1431.5,134.3c-9.6,0-16.7-7.1-16.7-16.8s7.1-16.8,16.7-16.8,16.7,7.1,16.7,16.8A16.3815,16.3815,0,0,1,1431.5,134.3Zm0-30.9c-8.2,0-13.2,6.5-13.2,13.9s5,13.9,13.2,13.9,13.2-6.5,13.2-13.9C1444.7,110,1439.7,103.4,1431.5,103.4Z" transform="translate(-73.6 -36.2)"/><path class="cls-1" d="M1470.8,106.6a7.81,7.81,0,0,0-6.6-3.3c-3.2,0-6.8,1.9-6.8,6s3.4,5.1,7,6.3c4.6,1.5,9.5,3,9.5,9.4s-5.4,9.3-10.5,9.3a12.3236,12.3236,0,0,1-10.1-4.8l2.9-2a8.7176,8.7176,0,0,0,7.3,4.1c3.3,0,7.1-2,7.1-6.2,0-4.5-3.8-5.6-7.8-6.9-4.3-1.3-8.7-3.2-8.7-9,0-6.2,5.5-8.9,10.3-8.9,4.3,0,7.5,1.8,9.1,3.9Z" transform="translate(-73.6 -36.2)"/><path class="cls-1" d="M529.3,194.4H544l13.7,37.5h.2l13.5-37.5h14.8v52.7h-9.4V204.8h-.1l-16,42.3h-6.5l-15.8-42.3h-.1v42.3h-9V194.4Z" transform="translate(-73.6 -36.2)"/><path class="cls-1" d="M623.8,193.1c16.5,0,28.4,10.7,28.4,27.6,0,16.5-12,27.9-28.4,27.9-16.2,0-28.2-11.4-28.2-27.9C595.6,203.8,607.5,193.1,623.8,193.1Zm.1,46.9c10.8,0,18.1-8.1,18.1-19.4,0-10.9-7.2-19.2-18.1-19.2s-18.1,8.4-18.1,19.2C605.8,231.9,613.1,240,623.9,240Z" transform="translate(-73.6 -36.2)"/><path class="cls-1" d="M661.7,194.4h9.4v22.8h.2l22.1-22.8H706l-24.6,24.3,26.3,28.4H694.6l-23.1-26.5h-.2v26.5h-9.4V194.4Z" transform="translate(-73.6 -36.2)"/><path class="cls-1" d="M740.3,205.4a13.05,13.05,0,0,0-9.7-4.6c-4.3,0-9.3,2-9.3,7.2,0,4.9,4.1,6.2,10.1,8.1,6.8,2,15.4,5.1,15.4,15.4,0,11.3-8.9,16.8-19.2,16.8-6.8,0-13.9-2.6-18.1-7.5l6.7-6.2a14.7893,14.7893,0,0,0,11.5,5.8c4.4,0,9.6-2.1,9.6-7.8,0-5.5-5.5-7-12.1-9.2-6.4-2-13.3-5.1-13.3-15,0-10.7,9.8-15.5,19.2-15.5,5.3,0,11.3,1.8,15.4,5.7Z" transform="translate(-73.6 -36.2)"/><path class="cls-1" d="M756.5,194.4h9.4v44.4h22.4v8.3H756.5V194.4Z" transform="translate(-73.6 -36.2)"/><path class="cls-1" d="M818.3,193.1c16.5,0,28.4,10.7,28.4,27.6,0,16.5-12,27.9-28.4,27.9-16.2,0-28.2-11.4-28.2-27.9C790.1,203.8,802.1,193.1,818.3,193.1Zm.1,46.9c10.8,0,18.1-8.1,18.1-19.4,0-10.9-7.2-19.2-18.1-19.2s-18.1,8.4-18.1,19.2C800.3,231.9,807.7,240,818.4,240Z" transform="translate(-73.6 -36.2)"/><path class="cls-1" d="M875.2,194.4h9.4v52.7h-9.4Z" transform="translate(-73.6 -36.2)"/><path class="cls-1" d="M896.6,194.4h18.3c9.9,0,19.4,4,19.4,15.1,0,7.6-4.7,12.6-12,14.2l14,23.4H925l-12.2-22.3H906v22.3h-9.4V194.4Zm17.1,22.7c5.3,0,11.3-1.2,11.3-7.6,0-5.7-5.7-7.1-10.5-7.1h-8.4v14.9h7.6v-.2Z" transform="translate(-73.6 -36.2)"/><path class="cls-1" d="M962.8,194.4h34.9v8.1H972.2V216h24.2v7.9H972.2v14.9H999v8.3H962.8V194.4Z" transform="translate(-73.6 -36.2)"/><path class="cls-1" d="M1008.6,194.4H1021l24.5,39.5h.1V194.4h9.4v52.7h-11.9l-25-40.7h-.1v40.7h-9.4Z" transform="translate(-73.6 -36.2)"/><path class="cls-1" d="M1105.1,206.8c-2.7-3.8-7.7-5.4-12-5.4-10.9,0-18.2,8.4-18.2,19.2,0,11.5,7,19.4,17.8,19.4,5.7,0,10.1-2.4,12.8-6.1l7.5,5.3c-4.6,5.8-11.5,9.3-20.4,9.3-16.5,0-28.1-11.4-28.1-27.9,0-16.9,12.3-27.6,28.6-27.6,6.8,0,15,2.5,19.1,8Z" transform="translate(-73.6 -36.2)"/><path class="cls-1" d="M1119.2,194.4h9.4v52.7h-9.4Z" transform="translate(-73.6 -36.2)"/><path class="cls-1" d="M1140.6,194.4h9.4v22.8h.2l22.1-22.8h12.6l-24.6,24.3,26.3,28.4h-13.1l-23.1-26.5h-.2v26.5h-9.4V194.4Z" transform="translate(-73.6 -36.2)"/><path class="cls-1" d="M1192.3,194.4h9.4v44.4h22.4v8.3h-31.8Z" transform="translate(-73.6 -36.2)"/><path class="cls-1" d="M1254.2,193.1c16.5,0,28.4,10.7,28.4,27.6,0,16.5-12,27.9-28.4,27.9-16.2,0-28.2-11.4-28.2-27.9C1226,203.8,1237.9,193.1,1254.2,193.1Zm.1,46.9c10.8,0,18.1-8.1,18.1-19.4,0-10.9-7.2-19.2-18.1-19.2s-18.1,8.4-18.1,19.2C1236.2,231.9,1243.5,240,1254.3,240Z" transform="translate(-73.6 -36.2)"/><path class="cls-1" d="M1292,194.4h17.2c12,0,19.8,4.3,19.8,15.3,0,11.6-9.3,15.7-20.5,15.7h-7.2v21.8h-9.4l.1-52.8Zm16,23c6.1,0,11.7-1.5,11.7-7.7s-5.6-7.3-11.4-7.3h-6.8v15.1h6.5Z" transform="translate(-73.6 -36.2)"/><path class="cls-1" d="M1337.8,194.4h34.9v8.1h-25.5V216h24.2v7.9h-24.2v14.9h26.9v8.3h-36.2l-.1-52.7Z" transform="translate(-73.6 -36.2)"/><path class="cls-1" d="M1383.6,194.4h18.7c13.7,0,29.1,6.5,29.1,26.4,0,18.4-15.4,26.4-29.1,26.4h-18.7Zm17.2,44.5c9.7,0,20.6-4,20.6-18.1,0-15.1-10.9-18.3-20.6-18.3H1393v36.4Z" transform="translate(-73.6 -36.2)"/><path class="cls-1" d="M1440.8,194.4h9.4v52.7h-9.4Z" transform="translate(-73.6 -36.2)"/><path class="cls-1" d="M1488.2,230.1c0,7.6-2.6,18.4-15.9,18.4-8.4,0-13.6-4.7-15.5-11.6l8.7-2.4c.9,3.5,3.5,5.7,6.7,5.7,5.4,0,6.6-4.3,6.6-10.3V194.5h9.4v35.6Z" transform="translate(-73.6 -36.2)"/><path class="cls-1" d="M1529,261.7a12.29,12.29,0,0,1-7.4,2.8c-4,0-7.6-2.3-7.6-6.6,0-3.4,2.6-6.9,5.4-9.6-11.5-.5-20.1-8.2-20.1-20.7V194.3h9.4v33c0,6.1,2.8,12.6,11.8,12.6s11.8-6.5,11.8-12.6v-33h9.4v33.4c0,11.4-7.3,18.9-17.4,20.4-2.1,2.2-4.6,5.4-4.6,8a3.5421,3.5421,0,0,0,3.5,3.5,7.5964,7.5964,0,0,0,4.1-1.5Z" transform="translate(-73.6 -36.2)"/><path class="cls-1" d="M677.9,295.5h9.4v44.4h22.4v8.3H677.9V295.5Z" transform="translate(-73.6 -36.2)"/><path class="cls-1" d="M717.8,295.5h34.9v8.1H727.2V317h24.2v7.9H727.2v14.9H754v8.3H717.8V295.5Z" transform="translate(-73.6 -36.2)"/><path class="cls-1" d="M765.1,295.5h9.4v52.7h-9.4Z" transform="translate(-73.6 -36.2)"/><path class="cls-1" d="M787.9,295.5h18.7c13.7,0,29.1,6.5,29.1,26.4,0,18.4-15.4,26.4-29.1,26.4H787.9ZM805.1,340c9.7,0,20.6-4,20.6-18.1,0-15.1-10.9-18.3-20.6-18.3h-7.8V340Z" transform="translate(-73.6 -36.2)"/><path class="cls-1" d="M856.7,325.3l-19.8-29.8h11.5l13.2,22.2L875,295.5h10.9l-19.8,29.8v22.9h-9.4V325.3Z" transform="translate(-73.6 -36.2)"/><path class="cls-1" d="M892.1,295.5h20.6c7.9,0,16.2,3.7,16.2,13.2,0,6-3.8,9.9-9.2,11.5v.1c6.6.9,11.4,5.4,11.4,12.4,0,11.5-10,15.4-19.9,15.4H892.3V295.5Zm9.4,21.5h8.3c6.2,0,9.6-2.6,9.6-7.1,0-4.7-3.4-6.5-10.4-6.5h-7.5V317Zm0,23.3h8.4c4.9,0,11.8-.9,11.8-7.9,0-5.5-3.8-7.4-11.4-7.4h-8.9v15.3Z" transform="translate(-73.6 -36.2)"/><path class="cls-1" d="M967.8,294.2c16.5,0,28.4,10.7,28.4,27.6,0,16.5-12,27.9-28.4,27.9-16.2,0-28.2-11.4-28.2-27.9C939.7,304.8,951.7,294.2,967.8,294.2Zm.1,46.9c10.8,0,18.1-8.1,18.1-19.4,0-10.9-7.2-19.2-18.1-19.2s-18.1,8.4-18.1,19.2C949.8,333,957.3,341.1,967.9,341.1Z" transform="translate(-73.6 -36.2)"/><path class="cls-1" d="M1034.1,306.5a13.05,13.05,0,0,0-9.7-4.6c-4.3,0-9.3,2-9.3,7.2,0,4.9,4.1,6.2,10.1,8.1,6.8,2,15.4,5.1,15.4,15.4,0,11.3-8.9,16.8-19.2,16.8-6.8,0-13.9-2.6-18.1-7.5l6.7-6.2a14.7893,14.7893,0,0,0,11.5,5.8c4.4,0,9.6-2.1,9.6-7.8,0-5.5-5.5-7-12.1-9.2-6.4-2-13.3-5.1-13.3-15,0-10.7,9.8-15.5,19.2-15.5,5.3,0,11.3,1.8,15.4,5.7Z" transform="translate(-73.6 -36.2)"/><path class="cls-1" d="M1110.3,307.8c-2.7-3.8-7.7-5.4-12-5.4-10.9,0-18.2,8.4-18.2,19.2,0,11.5,7,19.4,17.8,19.4,5.7,0,10.1-2.4,12.8-6.1l7.5,5.3c-4.6,5.8-11.5,9.3-20.4,9.3-16.5,0-28.1-11.4-28.1-27.9,0-16.9,12.3-27.6,28.6-27.6,6.8,0,15,2.5,19.1,8Z" transform="translate(-73.6 -36.2)"/><path class="cls-1" d="M1126,295.5h34.9v8.1h-25.5V317h24.2v7.9h-24.2v14.9h26.9v8.3H1126V295.5Z" transform="translate(-73.6 -36.2)"/><path class="cls-1" d="M1173.2,295.5h12.4l24.5,39.5h.1V295.5h9.4v52.7h-11.8l-25-40.7h-.1v40.7h-9.4V295.5Z" transform="translate(-73.6 -36.2)"/><path class="cls-1" d="M1243.9,303.6h-16.2v-8.1h41.7v8.1h-16.2v44.5h-9.4V303.6Z" transform="translate(-73.6 -36.2)"/><path class="cls-1" d="M1277.4,295.5h18.3c9.9,0,19.4,4,19.4,15.1,0,7.6-4.7,12.6-12,14.2l14,23.4h-11.3l-12.2-22.3h-6.8v22.3h-9.4V295.5Zm17,22.7c5.3,0,11.3-1.2,11.3-7.6,0-5.7-5.7-7.1-10.5-7.1h-8.4v14.9h7.6Z" transform="translate(-73.6 -36.2)"/><path class="cls-1" d="M1342.6,295.5h8.1l22.7,52.7h-10.7l-4.9-12H1335l-4.8,12h-10.5Zm11.9,32.6-8.1-21.5-8.2,21.5Z" transform="translate(-73.6 -36.2)"/><path class="cls-1" d="M1407.4,306.5a13.05,13.05,0,0,0-9.7-4.6c-4.3,0-9.3,2-9.3,7.2,0,4.9,4.1,6.2,10.1,8.1,6.8,2,15.4,5.1,15.4,15.4,0,11.3-8.9,16.8-19.2,16.8-6.8,0-13.9-2.6-18.1-7.5l6.7-6.2a14.79,14.79,0,0,0,11.5,5.8c4.4,0,9.6-2.1,9.6-7.8,0-5.5-5.5-7-12.1-9.2-6.4-2-13.3-5.1-13.3-15,0-10.7,9.8-15.5,19.2-15.5,5.3,0,11.3,1.8,15.4,5.7Z" transform="translate(-73.6 -36.2)"/><rect class="cls-1" y="185.1" width="310.4" height="185.1"/><g id="layer1"><g id="g3601"><path id="path3615" class="cls-2" d="M170.5,365.2a1.3521,1.3521,0,0,1,0-.9c.1-.4.4-3.3.7-6.6.9-9.1,1.5-19.7,1.9-30.9.2-5.9.2-33.6,0-37.2-.1-1.3-.2-5.2-.3-8.5s-.2-6.3-.2-6.6-.2-3.1-.3-6.3l-.2-5.8,5.5.2c9.9.3,17.4,1.2,24.2,3.2,5.9,1.6,13.1,4.8,16,7a31.0444,31.0444,0,0,1,11,18.2l.3,1.7.4-1.8c1.7-7.9,7.6-16.1,15.3-21,6.1-4,13.2-6.1,22.5-6.9,3.6-.3,17.8-.6,18.2-.4.3.1.3.7.2,3.2-.3,5.3-.9,20.2-1.1,25.9-.2,7.5-.2,30.7,0,37.3.4,12.4,1.6,29.5,2.4,35.4l.1,1h-16l.2-22.3c.2-31.5.3-66.1.1-66.7-.2-.5-.4-.5-2.2-.4a43.6241,43.6241,0,0,0-21.7,6.5c-8.9,5.8-14.2,15.6-14.8,27.2l-.2,3,1.9.2a86.4168,86.4168,0,0,0,12.6-.5c3.3-.3,9.8-1.3,11.3-1.7.5-.1.9-.2.9-.2s0,1.8-.2,4c-.7,11-.8,26.1-.3,32.5.3,3.2.9,8.2,1.1,8.8.1.4-.3.4-5.2.4h-5.3l.1-.7c.1-.4.4-2.9.7-5.6a206.5927,206.5927,0,0,0,1.5-21.9v-4.3h-3.3c-7.5,0-14.6,0-15.3.2l-.8.1v3.6a132.9727,132.9727,0,0,0,1.5,20.1c.3,1.8.6,3.3.6,3.4s-2.6.1-5.7.1c-3.2,0-5.7,0-5.7-.1l.4-2a171.298,171.298,0,0,0,1.9-20.6l.2-4.4-9.9.1c-5.4.1-10,.2-10.1.3-.3.3-.4,9.8-.1,13.4.3,4.3,1.1,9.9,1.8,14.2.3,1.8.6,3.4.6,3.7,0,.4-.6.4-5.3.4h-5.3l.1-.6c.3-1.4.9-8.1,1.1-13.3.4-9.8-.5-27.2-1.4-30.6a8.1442,8.1442,0,0,1-.2-.9,19.4835,19.4835,0,0,1,2.9.5,85.0223,85.0223,0,0,0,11.5,1.5,114.602,114.602,0,0,0,12.5.3l1-.1-.1-1.1c-1.8-13.4-4.9-20.9-10.4-25.7-7.7-6.5-15-9.3-26.1-10l-2.4-.2.1,37.3c.1,20.4.2,40.5.3,44.5l.1,7.3h-7.7C173.4,365.5,170.6,365.4,170.5,365.2Z" transform="translate(-73.6 -36.2)"/></g></g><rect class="cls-2" width="310.4" height="185.1"/><path class="cls-3" d="M214.3,126.6h29.1v22.8h-1.6V128.1H216v21.3h-1.6V126.6Z" transform="translate(-73.6 -36.2)"/><polygon class="cls-3" points="179.8 79.3 179.8 79.3 179.8 113.2 177.6 113.2 177.6 81.4 132.9 81.4 132.9 113.2 130.8 113.2 130.8 79.3 130.8 79.3 179.8 79.3"/><path class="cls-3" d="M265,102.5h0v46.9h-3V105.5H195.8v43.9h-3V102.5H265Z" transform="translate(-73.6 -36.2)"/><polygon class="cls-3" points="204.8 113.5 200.7 113.5 200.7 55.2 109.1 55.2 109.1 113.5 105.1 113.5 105.1 51.1 105.1 51.1 204.8 51.1 204.8 51.1 204.8 113.5"/><rect class="cls-1" x="88.8" y="119.1" width="132.9" height="1.6"/><rect class="cls-1" x="80.4" y="125.7" width="149.5" height="1.6"/><rect class="cls-1" x="72.2" y="132.4" width="166.1" height="1.6"/></svg>