<svg id="Vyriausybe" xmlns="http://www.w3.org/2000/svg" viewBox="0 0 898.4118 755.4118">
      <g class="grouping">
        <g>
          <g>
            <rect x="152.2183" y="723.3739" width="162.4424" height="29.4502" rx="14" fill="#fff"/>
            <path d="M300.661,724.3742a13.0147,13.0147,0,0,1,13,13v1.45a13.0146,13.0146,0,0,1-13,13H166.2187a13.0146,13.0146,0,0,1-13-13v-1.45a13.0147,13.0147,0,0,1,13-13H300.661m0-2H166.2187a15,15,0,0,0-15,15v1.45a15,15,0,0,0,15,15H300.661a15,15,0,0,0,15-15v-1.45a15,15,0,0,0-15-15Z" fill="#fbb01b"/>
          </g>
          <text transform="translate(203.8459 743.2139)" font-size="14.3821" fill="#111" font-family="Roboto-Bold, Roboto" font-weight="700"><tspan letter-spacing="-0.0435em">T</tspan><tspan x="8.2725" y="0">eikimas</tspan></text>
        </g>
        <text transform="translate(339.8083 734.4825)" font-size="16" fill="#111" font-family="Roboto-Regular, Roboto"><tspan letter-spacing="-0.0054em">V</tspan><tspan x="10.0938" y="0">yriausybės nutarimai teikiami Respublikos </tspan><tspan x="0" y="19.2002">P</tspan><tspan x="10.0938" y="19.2002" letter-spacing="-0.0093em">r</tspan><tspan x="15.3594" y="19.2002">ezidentui ir Seimui.</tspan></text>
      </g>
      <g class="grouping">
        <g>
          <g>
            <rect x="152.2184" y="222.1492" width="162.4424" height="29.4492" rx="14" fill="#fff"/>
            <path d="M300.661,223.1491a13.0147,13.0147,0,0,1,13,13v1.45a13.0148,13.0148,0,0,1-13,13H166.2186a13.0148,13.0148,0,0,1-13-13v-1.45a13.0147,13.0147,0,0,1,13-13H300.661m0-2H166.2186a15,15,0,0,0-15,15v1.45a15,15,0,0,0,15,15H300.661a15,15,0,0,0,15-15v-1.45a15,15,0,0,0-15-15Z" fill="#333"/>
          </g>
          <text transform="translate(194.6257 241.9888)" font-size="14.3821" fill="#111" font-family="Roboto-Bold, Roboto" font-weight="700">Inicij<tspan x="31.1099" y="0" letter-spacing="-0.0073em">a</tspan><tspan x="38.7153" y="0" letter-spacing="0em">vimas</tspan></text>
        </g>
        <text transform="translate(339.8088 235.7105)" font-size="16" fill="#111" font-family="Roboto-Regular, Roboto">Minist<tspan x="44.0391" y="0" letter-spacing="-0.0195em">r</tspan><tspan x="49.1406" y="0">as pirmininkas, minist</tspan><tspan x="204.0313" y="0" letter-spacing="-0.0195em">r</tspan><tspan x="209.1328" y="0">ai, s</tspan><tspan x="237.0703" y="0" letter-spacing="-0.0073em">a</tspan><tspan x="245.6563" y="0">vi</tspan><tspan x="257.2891" y="0" letter-spacing="-0.0073em">v</tspan><tspan x="264.9219" y="0">aldybių </tspan><tspan x="0" y="19.1997">ta</tspan><tspan x="13.9297" y="19.1997" letter-spacing="0.0088em">r</tspan><tspan x="19.4844" y="19.1997">ybos </tspan><tspan x="57.3672" y="19.1997" letter-spacing="-0.0093em">r</tspan><tspan x="62.6328" y="19.1997">egistruojami teisės aktų p</tspan><tspan x="245.5156" y="19.1997" letter-spacing="-0.0098em">r</tspan><tspan x="250.7734" y="19.1997">ojektai, </tspan><tspan x="0" y="38.3999">piliečių skundai ir p</tspan><tspan x="135.9531" y="38.3999" letter-spacing="-0.0195em">r</tspan><tspan x="141.0547" y="38.3999">ašymai.</tspan></text>
        <g>
          <line x1="233.845" y1="252.5989" x2="233.845" y2="293.4694" fill="none" stroke="#333" stroke-miterlimit="10" stroke-width="3"/>
          <polygon points="229.051 290.2 233.842 308.087 238.639 290.2 229.051 290.2" fill="#333"/>
        </g>
      </g>
      <g class="grouping">
        <g>
          <g>
            <rect x="152.2183" y="309.6297" width="162.4424" height="42.3115" rx="14" fill="#fff"/>
            <path d="M300.661,310.63a13.0147,13.0147,0,0,1,13,13v14.3114a13.0147,13.0147,0,0,1-13,13H166.2187a13.0147,13.0147,0,0,1-13-13V323.63a13.0147,13.0147,0,0,1,13-13H300.661m0-2H166.2187a15,15,0,0,0-15,15v14.3114a15,15,0,0,0,15,15H300.661a15,15,0,0,0,15-15V323.63a15,15,0,0,0-15-15Z" fill="#333"/>
          </g>
          <text transform="translate(168.7966 329.4708)" font-size="14.3821" fill="#111" font-family="Roboto-Bold, Roboto" font-weight="700">Iš<tspan x="11.5874" y="0" letter-spacing="-0.0073em">v</tspan><tspan x="18.75" y="0">adų ir pasiūlymų </tspan><tspan x="36.7559" y="14.9902">teikimas</tspan></text>
        </g>
        <text transform="translate(339.8088 322.5127)" font-size="16" fill="#111" font-family="Roboto-Regular, Roboto"><tspan letter-spacing="-0.0054em">V</tspan><tspan x="10.0938" y="0">yriausybės kanceliarija ir atitinkamos ministerijos </tspan><tspan font-family="Roboto-Bold, Roboto" font-weight="700"><tspan x="0" y="20.1348">teikia iš</tspan><tspan x="56.1172" y="20.1348" letter-spacing="-0.0073em">v</tspan><tspan x="64.0859" y="20.1348">adas </tspan><tspan x="102.4688" y="20.1348" font-family="Roboto-Regular, Roboto" font-weight="400">dėl p</tspan><tspan x="136.7891" y="20.1348" font-family="Roboto-Regular, Roboto" font-weight="400" letter-spacing="-0.0098em">r</tspan><tspan x="142.0469" y="20.1348" font-family="Roboto-Regular, Roboto" font-weight="400">ojek</tspan><tspan x="171.5781" y="20.1348" font-family="Roboto-Regular, Roboto" font-weight="400" letter-spacing="-0.0098em">t</tspan><tspan x="176.6484" y="20.1348" font-family="Roboto-Regular, Roboto" font-weight="400">o. </tspan></tspan><tspan x="0" y="60.4053">Suinte</tspan><tspan x="44.7266" y="60.4053" letter-spacing="-0.0093em">r</tspan><tspan x="49.9922" y="60.4053">esuo</tspan><tspan x="84.6641" y="60.4053" letter-spacing="-0.0098em">t</tspan><tspan x="89.7344" y="60.4053">os šalys </tspan><tspan x="151.6875" y="60.4053" font-family="Roboto-Bold, Roboto" font-weight="700">teikia pasiūlymus ir pastabas </tspan><tspan x="0" y="80.54">p</tspan><tspan x="8.9766" y="80.54" letter-spacing="-0.0098em">r</tspan><tspan x="14.2344" y="80.54">ojektui.</tspan></text>
        <g>
          <line x1="233.5616" y1="352.1762" x2="234.128" y2="453.12" fill="#fff"/>
          <g>
            <line x1="233.5617" y1="352.1762" x2="234.0459" y2="438.5023" fill="none" stroke="#333" stroke-miterlimit="10" stroke-width="3"/>
            <polygon points="229.234 435.26 234.125 453.12 238.821 435.206 229.234 435.26" fill="#333"/>
          </g>
        </g>
      </g>
      <g class="grouping">
        <g>
          <g>
            <rect x="152.2184" y="454.5037" width="162.4424" height="29.4502" rx="14" fill="#fff"/>
            <path d="M300.661,455.5042a13.0148,13.0148,0,0,1,13,13v1.45a13.0148,13.0148,0,0,1-13,13H166.2186a13.0148,13.0148,0,0,1-13-13v-1.45a13.0148,13.0148,0,0,1,13-13H300.661m0-2H166.2186a15,15,0,0,0-15,15v1.45a15,15,0,0,0,15,15H300.661a15,15,0,0,0,15-15v-1.45a15,15,0,0,0-15-15Z" fill="#bd2835"/>
          </g>
          <text transform="translate(194.6501 474.3438)" font-size="14.3821" fill="#111" font-family="Roboto-Bold, Roboto" font-weight="700" letter-spacing="-0.0054em">P<tspan x="9.1997" y="0" letter-spacing="0em">asitarimas</tspan></text>
        </g>
        <text transform="translate(339.8088 465.5059)" font-size="16" fill="#111" font-family="Roboto-Regular, Roboto">Suinte<tspan x="44.7266" y="0" letter-spacing="-0.0093em">r</tspan><tspan x="49.9922" y="0">esuo</tspan><tspan x="84.6641" y="0" letter-spacing="-0.0098em">t</tspan><tspan x="89.7344" y="0">os institucijos arba ministerijos </tspan><tspan x="0" y="19.2002">ats</tspan><tspan x="22.1797" y="19.2002" letter-spacing="-0.0098em">t</tspan><tspan x="27.25" y="19.2002" letter-spacing="-0.0073em">ov</tspan><tspan x="43.8906" y="19.2002">ai </tspan><tspan x="60.4375" y="19.2002" font-family="Roboto-Bold, Roboto" font-weight="700">vy</tspan><tspan x="76.5547" y="19.2002" font-family="Roboto-Bold, Roboto" font-weight="700" letter-spacing="-0.0098em">k</tspan><tspan x="84.9453" y="19.2002" font-family="Roboto-Bold, Roboto" font-weight="700">do pasitarimą p</tspan><tspan x="196.5313" y="19.2002" font-family="Roboto-Bold, Roboto" font-weight="700" letter-spacing="-0.0176em">r</tspan><tspan x="202.0859" y="19.2002" font-family="Roboto-Bold, Roboto" font-weight="700">ojek</tspan><tspan x="232.4844" y="19.2002" font-family="Roboto-Bold, Roboto" font-weight="700" letter-spacing="-0.0146em">t</tspan><tspan x="237.6563" y="19.2002" font-family="Roboto-Bold, Roboto" font-weight="700">o </tspan><tspan font-family="Roboto-Bold, Roboto" font-weight="700"><tspan x="0" y="38.4004">pasiūlymams suderinti</tspan><tspan x="163.3047" y="38.4004" font-family="Roboto-Regular, Roboto" font-weight="400">.</tspan></tspan></text>
        <g>
          <line x1="233.5618" y1="485.3378" x2="234.0148" y2="543.7609" fill="none" stroke="#bd2835" stroke-miterlimit="10" stroke-width="3"/>
          <polygon points="229.196 540.529 234.125 558.378 238.783 540.455 229.196 540.529" fill="#bd2835"/>
        </g>
      </g>
      <g class="grouping">
        <g>
          <g>
            <rect x="152.2184" y="557.6522" width="162.4424" height="29.4502" rx="14" fill="#fff"/>
            <path d="M300.661,558.6527a13.0147,13.0147,0,0,1,13,13v1.45a13.0148,13.0148,0,0,1-13,13H166.2186a13.0148,13.0148,0,0,1-13-13v-1.45a13.0147,13.0147,0,0,1,13-13H300.661m0-2H166.2186a15,15,0,0,0-15,15v1.45a15,15,0,0,0,15,15H300.661a15,15,0,0,0,15-15v-1.45a15,15,0,0,0-15-15Z" fill="#bd2835"/>
          </g>
          <text transform="translate(180.2926 577.4932)" font-size="14.3821" fill="#111" font-family="Roboto-Bold, Roboto" font-weight="700">L<tspan x="7.7881" y="0" letter-spacing="-0.0093em">R</tspan><tspan x="16.833" y="0">V pasitarimas</tspan></text>
        </g>
        <text transform="translate(339.8083 568.4981)" font-size="16" fill="#111" font-family="Roboto-Regular, Roboto"><tspan letter-spacing="-0.0054em">V</tspan><tspan x="10.0938" y="0">yriausybės pasitarime aptariami teisės aktų </tspan><tspan x="0" y="19.2002">p</tspan><tspan x="8.9766" y="19.2002" letter-spacing="-0.0098em">r</tspan><tspan x="14.2344" y="19.2002">ojektai ir pasiūlymai.</tspan></text>
        <g>
          <line x1="233.5618" y1="587.1437" x2="233.9721" y2="625.5673" fill="none" stroke="#bd2835" stroke-miterlimit="10" stroke-width="3"/>
          <polygon points="229.144 622.349 234.125 640.184 238.731 622.247 229.144 622.349" fill="#bd2835"/>
        </g>
      </g>
      <g class="grouping">
        <g>
          <g>
            <rect x="152.2184" y="640.8006" width="162.4424" height="29.4502" rx="14" fill="#fff"/>
            <path d="M300.661,641.8011a13.0148,13.0148,0,0,1,13,13v1.45a13.0148,13.0148,0,0,1-13,13H166.2186a13.0148,13.0148,0,0,1-13-13v-1.45a13.0148,13.0148,0,0,1,13-13H300.661m0-2H166.2186a15,15,0,0,0-15,15v1.45a15,15,0,0,0,15,15H300.661a15,15,0,0,0,15-15v-1.45a15,15,0,0,0-15-15Z" fill="#bd2835"/>
          </g>
          <text transform="translate(196.1315 660.6407)" font-size="14.3821" fill="#111" font-family="Roboto-Bold, Roboto" font-weight="700">Bals<tspan x="28.0972" y="0" letter-spacing="-0.0073em">a</tspan><tspan x="35.7026" y="0">vimas</tspan></text>
        </g>
        <text transform="translate(339.8083 651.4903)" font-size="16" fill="#111" font-family="Roboto-Regular, Roboto"><tspan letter-spacing="-0.0054em">V</tspan><tspan x="10.0938" y="0">yriausybės posėdyje </tspan><tspan x="157.6484" y="0" font-family="Roboto-Bold, Roboto" font-weight="700">balsuojama </tspan><tspan x="244.8521" y="0">dėl </tspan><tspan x="0" y="19.2002">su</tspan><tspan x="17.0703" y="19.2002" letter-spacing="-0.0093em">r</tspan><tspan x="22.3359" y="19.2002">edaguotų teisės aktų p</tspan><tspan x="183.7891" y="19.2002" letter-spacing="-0.0098em">r</tspan><tspan x="189.0469" y="19.2002">ojektų.</tspan></text>
        <g>
          <line x1="233.5595" y1="671.2509" x2="233.9656" y2="707.7572" fill="none" stroke="#bd2835" stroke-miterlimit="10" stroke-width="3"/>
          <polygon points="229.136 704.541 234.125 722.374 238.723 704.435 229.136 704.541" fill="#bd2835"/>
        </g>
      </g>
      <g class="grouping">
        <text transform="translate(390.7942 139.0402)" font-size="43.9432" fill="#111" font-family="Roboto-Black, Roboto" font-weight="800">LR <tspan x="63.4258" y="0" letter-spacing="-0.0054em">V</tspan><tspan x="92.2207" y="0">yriausybė</tspan></text>
        <g>
          <path d="M250.8294,104.4794v-1.0628h-7.18V93.8519h-1.29v10.6275Zm3.113-10.6275h-1.29v10.6275h1.29Zm12.2513,10.6275v-1.0628h-8.38V99.53h7.3322V98.4673h-7.3322V94.9146h8.2894V93.8519h-9.58v10.6275Zm12.2975-9.5648V93.8519H267.4849v1.0627h4.8576v9.5648h1.2912V94.9146Zm12.2368,4.6913v-5.754h-1.29v5.754c0,2.8846-1.26,3.9626-4.084,3.9626-2.84,0-4.0543-1.0628-4.0543-3.9626v-5.754h-1.29v5.754c0,3.7955,1.7,5.0253,5.3441,5.0253,3.6728,0,5.3738-1.1842,5.3738-5.0253m13.4059-5.754h-1.4113l-4.6768,9.5344-4.6906-9.5344h-1.4126l5.2986,10.6275h1.5941ZM316.3706,99.15c0-3.841-2.612-5.45-6.088-5.45-3.4463,0-6.0735,1.6093-6.0735,5.45s2.5816,5.4808,6.0735,5.4808c3.5223,0,6.088-1.64,6.088-5.4808m-1.2911,0c0,3.0668-1.9585,4.4181-4.7969,4.4181-2.8239,0-4.7817-1.3513-4.7817-4.4181,0-3.0819,1.9875-4.3876,4.7817-4.3876,2.7784,0,4.7969,1.3057,4.7969,4.3876m13.4679,2.2774c0-4.6306-9.2459-1.746-9.2459-4.5547,0-1.8218,2.307-2.11,3.6886-2.11,1.5175,0,3.476.2885,4.0087,1.9433l1.1684-.2884c-.744-2.2166-3.0365-2.7176-5.1309-2.7176-1.944,0-5.0412.7135-5.0412,3.173,0,4.2055,9.2,1.2146,9.2,4.5547,0,1.9736-2.7024,2.1407-4.13,2.1407-1.777,0-3.6582-.3189-4.1744-2.05l-1.2305.3188c.5769,2.3532,3.082,2.7935,5.4049,2.7935,2.1862,0,5.4814-.3188,5.4814-3.2034" fill="#231f20"/>
          <path d="M253.2438,122.4219l-3.1124-4.5395a3.0446,3.0446,0,0,0,2.8846-3.0212c0-1.9889-1.67-3.0668-3.5071-3.0668h-7.15v10.6275h1.29V117.928H248.75l3.0364,4.4939Zm-1.5183-7.5607a2.0245,2.0245,0,0,1-2.2014,2.004h-5.8748v-4.008h5.8748a2.0245,2.0245,0,0,1,2.2014,2.004m13.0111,7.5607v-1.0628h-8.38v-3.8866h7.333V116.41h-7.333v-3.5526h8.2888v-1.0628h-9.58v10.6275Zm12.3272-3.0516c0-4.6306-9.2452-1.746-9.2452-4.5546,0-1.8219,2.3077-2.11,3.6893-2.11,1.5175,0,3.476.2885,4.0073,1.9433l1.17-.2884c-.744-2.2166-3.0365-2.7176-5.1309-2.7176-1.944,0-5.0412.7136-5.0412,3.1731,0,4.2054,9.2,1.2145,9.2,4.5546,0,1.9737-2.7024,2.1407-4.13,2.1407-1.777,0-3.66-.3189-4.1744-2.05l-1.2312.3188c.577,2.3532,3.0827,2.7935,5.4056,2.7935,2.1855,0,5.48-.3188,5.48-3.2034m12.3893-4.5091c0-1.9889-1.6238-3.0668-3.4615-3.0668h-7.1052v10.6275h1.2911V117.928h5.8141c1.8377,0,3.4615-1.0779,3.4615-3.0668m-1.2911,0a1.9972,1.9972,0,0,1-2.2159,2.004h-5.7686v-4.008h5.7686a1.9972,1.9972,0,0,1,2.2159,2.004m13.5279,2.6872v-5.754h-1.2911v5.754c0,2.8846-1.26,3.9626-4.084,3.9626-2.8384,0-4.053-1.0628-4.053-3.9626v-5.754h-1.2911v5.754c0,3.7956,1.7011,5.0253,5.3441,5.0253,3.6747,0,5.3751-1.1842,5.3751-5.0253m13.3293,1.8067a2.5531,2.5531,0,0,0-1.8978-2.505,2.423,2.423,0,0,0,1.2456-2.2166c0-2.0193-1.67-2.8391-3.476-2.8391h-6.9244v10.6275h7.6373c2.0647,0,3.4153-.8654,3.4153-3.0668m-1.9427-4.7368a1.6658,1.6658,0,0,1-1.6548,1.7915h-6.164v-3.5526h5.6478c1.1683,0,2.171.4554,2.171,1.7611m.6529,4.7368c0,1.4119-.7592,2.004-2.1255,2.004h-6.3462v-3.9169H311.3c1.3209,0,2.4292.4554,2.4292,1.9129m11.508,3.0668v-1.0628h-7.1818v-9.5647h-1.29v10.6275Zm3.1117-10.6275h-1.29v10.6275h1.29Zm13.3747,10.6275-7.1045-6.0121,6.6946-4.6154h-1.9433l-7.1487,4.9646v-4.9646h-1.2912v10.6275h1.2912V118.08l1.365-.9565,6.3165,5.2986Zm11.7827-5.3289c0-3.8411-2.612-5.45-6.088-5.45-3.4463,0-6.0735,1.6093-6.0735,5.45s2.5816,5.4807,6.0735,5.4807c3.5223,0,6.088-1.64,6.088-5.4807m-1.2911,0c0,3.0668-1.9585,4.418-4.7969,4.418-2.8239,0-4.7824-1.3512-4.7824-4.418,0-3.082,1.9882-4.3877,4.7824-4.3877,2.7783,0,4.7969,1.3057,4.7969,4.3877m13.4665,2.2773c0-4.6306-9.2445-1.746-9.2445-4.5546,0-1.8219,2.3056-2.11,3.6872-2.11,1.5189,0,3.4774.2885,4.0087,1.9433l1.1684-.2884c-.744-2.2166-3.0365-2.7176-5.1309-2.7176-1.944,0-5.04.7136-5.04,3.1731,0,4.2054,9.199,1.2145,9.199,4.5546,0,1.9737-2.7024,2.1407-4.1281,2.1407-1.777,0-3.66-.3189-4.1758-2.05l-1.2291.3188c.5762,2.3532,3.0806,2.7935,5.4049,2.7935,2.1862,0,5.48-.3188,5.48-3.2034" fill="#231f20"/>
          <path d="M253.4864,129.7366h-1.4119l-4.6761,9.5351-4.6906-9.5351h-1.4119l5.2985,10.6282h1.5935Zm11.7054,0h-1.5334l-4.1447,5.4511-4.19-5.4511h-1.5334l5.04,6.4835v4.1447h1.3361V136.22Zm12.252,10.6282-3.1123-4.5394a3.0464,3.0464,0,0,0,2.8846-3.022c0-1.9881-1.67-3.0668-3.5071-3.0668h-7.15v10.6282h1.29v-4.4939H272.95l3.0371,4.4939Zm-1.5175-7.5614a2.0254,2.0254,0,0,1-2.2028,2.0041h-5.8748V130.8h5.8748a2.0248,2.0248,0,0,1,2.2028,2.0033m4.7823-3.0668h-1.2911v10.6275h1.2911Zm13.7088,10.6282-5.313-10.6282h-1.5638l-5.3144,10.6282h1.4126l1.5486-3.1889h6.27l1.5486,3.1889Zm-3.476-4.2365h-5.2378l2.6258-5.4345Zm14.6494-.6376v-5.7541h-1.29v5.7541c0,2.8846-1.26,3.9625-4.084,3.9625-2.8384,0-4.0529-1.0621-4.0529-3.9625v-5.7541h-1.2912v5.7541c0,3.7955,1.7011,5.0246,5.3441,5.0246,3.6741,0,5.3738-1.1829,5.3738-5.0246m12.5563,1.8225c0-4.6312-9.2459-1.7466-9.2459-4.5546,0-1.8219,2.3077-2.11,3.6892-2.11,1.5189,0,3.4774.2885,4.0081,1.9434l1.169-.2885c-.7439-2.2173-3.0371-2.7183-5.1315-2.7183-1.9433,0-5.0412.7143-5.0412,3.1738,0,4.2054,9.2011,1.2145,9.2011,4.5546,0,1.973-2.7031,2.14-4.13,2.14-1.775,0-3.6582-.3188-4.1745-2.05l-1.229.3195c.5769,2.3533,3.0813,2.7922,5.4035,2.7922,2.1876,0,5.4814-.3175,5.4814-3.2021m11.4018-7.5766h-1.5341l-4.1447,5.4511-4.19-5.4511h-1.5327l5.04,6.4835v4.1447h1.3374V136.22Zm12.419,7.5614a2.552,2.552,0,0,0-1.8978-2.505,2.4246,2.4246,0,0,0,1.2456-2.2173c0-2.0192-1.67-2.8391-3.4774-2.8391h-6.923v10.6282h7.6373c2.0647,0,3.4153-.8654,3.4153-3.0668m-1.9434-4.7375a1.6652,1.6652,0,0,1-1.6555,1.7915h-6.1633V130.8h5.6471c1.17,0,2.1717.4547,2.1717,1.76m.6536,4.7375c0,1.4113-.76,2.0034-2.1255,2.0034h-6.3469v-3.917h6.0418c1.3216,0,2.4306.4555,2.4306,1.9136m12.7074,3.0668v-1.0634h-8.3812v-3.886h7.3323V134.352h-7.3323V130.8h8.2894v-1.0635h-9.5806v10.6282ZM349.59,128.021a.8358.8358,0,1,0-.8357.8358.8425.8425,0,0,0,.8357-.8358" fill="#231f20"/>
          <path d="M158.4925,85.4851h67.5253v45.07c0,17.5381-15.1669,31.8424-33.763,31.8424s-33.7623-14.3043-33.7623-31.8424v-45.07Z" fill="#ec1c24" fill-rule="evenodd"/>
          <path d="M175.65,101.71q-.9306,1.0569-1.8619,2.1144-1.089,1.262-2.1772,2.5244-.4256.4731-.8516.9468-.5373.678-1.0738,1.3568a1.2431,1.2431,0,0,0,.127,1.5147,2.3641,2.3641,0,0,0,.4106,2.1138.892.892,0,0,0,1.1669-.0945l.2526-.9151q.5362-.4421,1.0724-.8833.3.41.6.8205-.2691.2836-.5369.5679c.0946.1891.19.3782.2836.568-.1152.0938-.2311.1891-.3471.2836-.1635.8164.4058.7329.8523.5369a2.319,2.319,0,0,0,2.3981-2.209,1.1968,1.1968,0,0,1,.5051,1.2939q-.5051,1.0093-1.01,2.0193a1.0729,1.0729,0,0,0-.9841.9937.9454.9454,0,0,0,.7847,1.0862,1.1018,1.1018,0,0,0,1.1145-.5652,1.22,1.22,0,0,0,.0317-1.1359q1.0569.2993,2.1138.599-.3.5527-.6,1.1042a2.69,2.69,0,0,0-2.2083,1.6735q-.6315.9617-1.2629,1.9246a5.62,5.62,0,0,0-2.1269-1.27,3.6265,3.6265,0,0,0-1.1158-.2581,2.3942,2.3942,0,0,0-1.2063.4237q-3.4554,2.0982-6.9107,4.1965a2.89,2.89,0,0,0-.8515,1.1366q-1.0579,2.6334-2.1145,5.27l.2836,1.0414q.8054-.2216,1.61-.4417a7.4444,7.4444,0,0,0-.48,1.7832,9.6148,9.6148,0,0,0,.0456,2.3312c.1262,1.1249.2008,2.249.3388,3.3642q.3468.3934.6942.7888,1.7991-2.035,3.5975-4.0716a4.1472,4.1472,0,0,0-.7432-.7184,5.8486,5.8486,0,0,0-1.1187-.6376c-.187-.8067.1091-1.385.5707-1.4175a1.1765,1.1765,0,0,1,.9441.597,2.1463,2.1463,0,0,0,.5051-2.3346A32.8426,32.8426,0,0,1,168.61,126.77c.5045-.5942.78-.9758,1.6093-1.0407.9158-.0711,1.36.4789,1.7605,1.2015a5.0533,5.0533,0,0,1,.6093,1.9488q1.7359,2.2422,3.4712,4.4815a1.2686,1.2686,0,0,0,.884.5362,4.2671,4.2671,0,0,0,1.167-.0311,1.4064,1.4064,0,0,0,.884-.8522q1.3881.4886,2.777.9779c.147.0738.2946.1469.4416.2208-.0842.21-.1684.4216-.2526.6314a1.1833,1.1833,0,0,0-1.23.9144,7.5215,7.5215,0,0,0-5.901,3.4719q.4886.3622.9785.7259a2.4983,2.4983,0,0,1,2.209-1.2q.0156.3.0318.6,2.02.19,4.0391.3788c.0628-.1787.1256-.3567.1891-.5362.452.1263.9247.2926,1.3767.4189.1257-.2319.2326-.5024.3582-.7343q1.6261.5683,3.25,1.1353c-.62.463-1.3816.9861-2.002,1.4485.9572-.0421,2.0544-.1436,3.0116-.1864q.9948,1.3416,1.9881,2.6831-.2049-1.6728-.4092-3.3455,1.15-.71,2.3029-1.42c-.9158-.0317-1.83-.0227-2.7459-.0545-.5252-.737-1.051-1.5134-1.5769-2.249q.03,1.0413.0628,2.0827-1.7193-.5848-3.44-1.1677a4.6439,4.6439,0,0,1,2.1144-2.0516,30.1129,30.1129,0,0,0,6.627,1.0731q.0621,3.2347.1256,6.469a7.6751,7.6751,0,0,0,1.6093,5.2074,8.2509,8.2509,0,0,0,1.42-5.1439q-.0465-3.2816-.0945-6.5636c.3416.0083.6942.0573.8226.312.0669.1332.1456.276.2312.4271.3561.6239.2636.6211.9378.4645a10.4279,10.4279,0,0,1,1.915-.2574,4.3738,4.3738,0,0,0,.735,2.427,4.1221,4.1221,0,0,0,2.0392,1.443,13.71,13.71,0,0,1,3.0378,2.0945,3.8781,3.8781,0,0,1,.3789,2.8715c-.6749,1.2049-1.3326,2.4049-2.0848,3.5871a3.3329,3.3329,0,0,1-1.1745,1.2994c-2.0641,1.2484-4.3525,2.6956-5.3869,4.9266-.0421.3485-.0835.695-.1263,1.0421q1.2-.0321,2.3988-.0635v.726q2.6965.0155,5.3958.031.0156-.8508.0318-1.7038.7991-2.0143,2.3981-.3471a3.6576,3.6576,0,0,0,.9778-2.3664l4.7658-7.542a2.3412,2.3412,0,0,0,.499-1.1187,1.4548,1.4548,0,0,0-.4513-1.3574,7.0319,7.0319,0,0,0-1.9406-.9317,2.4042,2.4042,0,0,1-1.2946-1.8618c.2236-1.7915,2.0123-3.3235,2.9025-5.1751a15.7218,15.7218,0,0,0,.245-4.0219.8525.8525,0,0,1,.4852.372c1.3243,3.2117,6.3026,6.5187,9.1879,2.9992a3.66,3.66,0,0,1-2.7231-.0746c4.5367-.7915,3.0281-5.8582,3.9418-6.8761a.7434.7434,0,0,0-1.0068.1857c-.2278-2.454-2.6555-4.2283-3.503-6.3427a2.3055,2.3055,0,0,0-.6.884,7.3084,7.3084,0,0,1-1.4505-7.0369c-1.97.3947-2.8881,2.6575-2.9343,6.4689a5.9264,5.9264,0,0,1-.7585-3.4083c-.8964,1.6113-1.63,3.2331-.3788,5.49a27.9437,27.9437,0,0,0,3.3773,3.8189c.4651.5128,1.6107,1.3554.6308,1.9793a3.9957,3.9957,0,0,1-3.2511-.3382,32.435,32.435,0,0,1-5.3952-4.1972,13.4614,13.4614,0,0,0-4.04-1.9571c.5555-.93,1.2194-1.8743.0325-2.5871-.3906-.1263-.7785-.2519-1.1677-.3789v-1.7356a21.75,21.75,0,0,0,4.7334,2.7135c4.82-5.1123,5.6153-11.6358,1.7045-18.3966q-1.4056.237-2.8094.4734c-.432-.7274-1.3781-.893-2.3981-.9779a.7547.7547,0,0,0,.0939-.68c-2.6445.3664-.45-1.8688-.0531-2.4057a2.1111,2.1111,0,0,0,.1718-2.6093,12.7024,12.7024,0,0,0-2.1055-2.6362,7.5688,7.5688,0,0,0-3.1247.9469l-.599-.4106c-.7267.8729-1.5328,1.8867-2.258,2.759a4.0069,4.0069,0,0,0,.8426-.01,3.3425,3.3425,0,0,1-.637,1.2277.3571.3571,0,0,0,.1587.4734.498.498,0,0,0-.0317.6942,2.1305,2.1305,0,0,1-.26,1.0752.7081.7081,0,0,0-.5942.1222c-.2263.1808-.3581.55-.1559,1.2007-.0635.0318-.1249.0635-.1891.0946-1.2049-.7888-2.3712-1.5376-3.416-2.3263.147-.0842.334-.2085.4817-.2927-.3678-.21-.7163-.501-1.0841-.7114-.1056-.4417-.25-.8834-.3561-1.325-.136.0731-.2533.227-.3906.3008l-.6963-1.3884.5389-.6c-.9288-.3237-1.0641-1.2318-.9778-2.3043q10.0968-.1407,20.1956-.2829c1.706-.1028,3.2821-.363,4.2283-1.3891a6.3574,6.3574,0,0,0-4.4173-1.3885q-10.0214-.0631-20.0384-.1256c-.0462-1.0221-.0593-2.1435,1.0269-2.4616l-1.1842-1.1359c-1.0034.4472-1.4375,1.9053-1.7446,3.37-.4941-.2518-.9489-.6245-1.4437-.8764-.2746-.0455-.336.265-.4409.5045a2.3643,2.3643,0,0,0-2.3981,1.29l-3.2821.0034L181,90.4332a1.8209,1.8209,0,0,0-.0172,3.64l.0545-.97,3.2586-.0083a4.4064,4.4064,0,0,0,1.0724,1.7356,24.0938,24.0938,0,0,1-1.3567,2.6189,32.9341,32.9341,0,0,0,4.0709.1891,7.7211,7.7211,0,0,0,.9268,1.7039c-.1159.0421-.2112.0842-.3271.1269a5.8014,5.8014,0,0,1,.6949,2.1138l1.6631,1.1994.2726-.1228a14.5069,14.5069,0,0,0,3.0171,3.2786c.5252,2.6576,1.73,5.4759,2.1145,7.894a29.67,29.67,0,0,1-3.7231.499,6.6553,6.6553,0,0,0-.757-3.2179.7672.7672,0,0,0,.6625-.3479c-.911-.7577-.58-1.7169-1.2311-2.3346.1159-.1262.2311-.2525.3471-.3788-.7122-.4983-.5845-1.677-1.3561-2.3353a9.5835,9.5835,0,0,0-5.144-4.5754c-.011-.1262-.0213-.2525-.0317-.3788a8.7849,8.7849,0,0,0-1.9882-.4106c-.01-.1367-.02-.2733-.0317-.41a6.1634,6.1634,0,0,0-3.0916-.2844c-.7281-1.3222-2.5555-1.0627-3.503-1.9246-.9737.2187-.2822.8688.1594,1.3049-.3781-.0738-.9771-.3278-1.2953-.4209q-.3675.6077.9468,1.2932-.8373.4741-1.6728.9468c.0352.3444.4.6149.9151.8523m1.0317,8.6655q.4078-.4286.8164-.8564a11.9335,11.9335,0,0,0,2.7687-.2795,5.8247,5.8247,0,0,1-.7564,4.1634q-1.0465-.3187-2.0917-.637a2.3593,2.3593,0,0,0-.737-2.39m15.9309,5.2544c-.03.22-.0614.44-.0911.66a2.77,2.77,0,0,1,1.6231,1.1221,7.2239,7.2239,0,0,0,2.445-2.2015q-1.9875.2091-3.977.4189" fill="#fff" fill-rule="evenodd"/>
          <path d="M202.9927,125.6037a6.19,6.19,0,0,1,.2478,2.8336c1.2539.45,2.4394.9461,3.5553,1.4768.078-2.0689.0691-4.193-.8543-5.8679.4341.1615.7246.365,1.1566.5265.8944,1.4478.8316,3.74.7922,5.8831a36.0365,36.0365,0,0,1,5.6,3.5733q-.1522.8013-.3051,1.6038a17.935,17.935,0,0,0-5.3441-3.946c-.0641,2.0365.029,3.7707,1.2056,4.27.0062.2837.0118.568.0194.8523q-.324.1222-.6487.2436c-1.76-1.0655-1.7757-3.3677-1.6735-5.9127q-1.6314-.7775-3.5768-1.5044c-.0842,1.6907-.02,3.4725,1.1718,4.6574q-.0321.4368-.0607.8723-.5187.0093-1.0352.0207c-1.5955-2.1759-1.3574-4.173-1.21-5.961-1.2263-.43-2.7908-.9034-4.2137-1.3133-.2367.0621-.4576.1166-.66.1649q-.0332-1.9108-.0635-3.82,1.1211-.9306,2.2435-1.8626c1.8619-.0725,3.1531-.6114,3.6134-1.83a4.613,4.613,0,0,1,1.9737.4134c1.0344.5072.9723,1.2125.6052,1.9744a10.225,10.225,0,0,1-2.5389,2.652m-3.0709-19.6477,10.1106-2.0172a13.9508,13.9508,0,0,1-1.4734,17.08c-5.9217-2.3974-9.34-7.9547-8.6372-15.0627m-.1643,21.353c.7688.2222,1.708.5327,2.34.7384a6.9223,6.9223,0,0,0-.2643-1.6963,14.469,14.469,0,0,1-2.0759.9579m-8.159,1.5216a2.5138,2.5138,0,0,1-.3112,1.4844c-.1463-.06-.2947-.1194-.4417-.18a10.0244,10.0244,0,0,1-1.0393,2.6589q1.1056.0114,2.21.0235a1.5757,1.5757,0,0,1,1.1221-1.4368q-.0114-1.8011-.0234-3.6036a2.752,2.752,0,0,1-1.5169,1.0537m-17.9439-7.6587c-.17.31-.3388.6211-.5093.931q.58.6334,1.158,1.2656a29.6469,29.6469,0,0,1,13.8565-1.67l.2277,1.09-6.7367,11.1092c.2394.1222.4106.245.65.3685q2.5247-3.357,5.0515-6.7139c.0227-.4334.0469-.8675.07-1.3009a3.8881,3.8881,0,0,1,2.21-1.4064A24.4724,24.4724,0,0,1,194.28,118.87c-.0234-2.316-1.2621-2.7024-2.8411-2.5493a4.3962,4.3962,0,0,0-3.03,3.2642,39.9082,39.9082,0,0,0-14.7543,1.5872m2.7742-8.7946q-.5114.9451-1.0227,1.8909c6.2433,1.9481,13.6977,2.1221,22.2556.6818,1.5693-.3657.7329-1.425-.1235-1.27-8.1694,1.5383-15.1718,1.0435-21.1094-1.3022m-4.8258-5.9514q-.3861.4182-.7716.8371a8.4416,8.4416,0,0,1,2.86,1.9958c.5742-.7232,1.22-.8033,1.8253-.029,1.3174-1.2774,2.5761-2.5892,3.8935-3.8666.1933,0,.3389.0469.5314.0469a5.6244,5.6244,0,0,1,1.011,3.0468,3.82,3.82,0,0,1,1.0282-.26,4.3758,4.3758,0,0,0-1.3815-3.5091l.0642-.58a3.4734,3.4734,0,0,0,1.4781-2.8011,1.6463,1.6463,0,0,0-1.1566-.2574,3.112,3.112,0,0,1-1.367,2.4174,11.2559,11.2559,0,0,0-2.7977-2.1745,2.3653,2.3653,0,0,0-1.2656.6584,10.9836,10.9836,0,0,1,3.1806,2.19c-.0214.1719-.0545.2726-.0759.4445-1.3381,1.2773-2.7583,2.7065-4.0978,3.9832a12.3457,12.3457,0,0,0-2.9584-2.1421" fill="#00adee" fill-rule="evenodd"/>
          <path d="M180.8963,136.3274a8.0786,8.0786,0,0,1-2.9433,2.4243q.0517.2712.1036.5417,1.9947.207,3.988.4154c.0545-.1587.11-.3188.1656-.4782a1.8639,1.8639,0,0,1-.52-1.2277l5.5877,2.06-1.9323,1.374,2.9288-.1456,2.0144,2.7473-.4154-3.3511,2.3049-1.5189-2.8039.0421-1.5354-2.27.0407,1.9565q-3.1158-1.0083-6.23-2.0186c.0179-.0835.0428-.05.1242-.05a.9536.9536,0,1,0-.9965-.9523.9159.9159,0,0,0,.1187.4514m29.0289-21.9838-1.6238.35.4017,1.7936a1.0154,1.0154,0,0,0,.5852.7832l-2.8011.62a1.0739,1.0739,0,0,0,.2111-.9357l-.3954-1.86-2.1041.4389a1.1417,1.1417,0,0,0-.7315.5314l-.5286-2.563a.9925.9925,0,0,0,.7895.1435l2.1744-.4326-.512-2.3181-2.0413.4141a1.1113,1.1113,0,0,0-.7639.5645l-.56-2.5534a1.2562,1.2562,0,0,0,.9144.1518l2.0868-.4216-.3271-1.6555a1.33,1.33,0,0,0-.559-.6977l2.6314-.5452a1.0042,1.0042,0,0,0-.1063.8937l.3278,1.5713,1.6348-.3657a1.2781,1.2781,0,0,0,.9441-.6066l.5769,2.6589a1.0961,1.0961,0,0,0-.9468-.1808l-1.7867.3671.4576,2.2442,1.8356-.3706a.9046.9046,0,0,0,.7481-.5086l.5679,2.5824a1.3221,1.3221,0,0,0-1.1-.0932m-34.4337.0331a.9855.9855,0,1,1-.9862.9855.9856.9856,0,0,1,.9862-.9855m-.2857-4.0515a2.0942,2.0942,0,0,1,1.3167,2.071q.4782.1988.9558.3975a2.8175,2.8175,0,0,0-1.9268-3.1213c.0021-.0276.0035-.0553.0035-.0822a.9456.9456,0,1,0-.3492.735m4.47-6.8534a.9472.9472,0,1,1-.9475.9475.9478.9478,0,0,1,.9475-.9475M190.321,97.47c-2.1387-1.04-2.3133-9.0548.0248-10.3687l1.1138,1.1925c-.2567.17-.8826.3381-.9137,1.073l-.0952,5.6747c.0228.64.8122,1.06,1.1193,1.1966ZM181,94.0154c-2.5878-.2311-2.3111-3.3828-.049-3.407l.0138.9192,4.4525.0318a2.6771,2.6771,0,0,1,.5369,1.512l-4.968-.0256Zm21.5938,33.9673a.9737.9737,0,1,1-.9751.973.9735.9735,0,0,1,.9751-.973m4.7079,1.826a.9741.9741,0,1,1-.9744.9744.9742.9742,0,0,1,.9744-.9744M193.1172,121.32h3.0261q.0135.5435.0283,1.0869c-1.2732.0069-1.3271,1.4968-.0152,1.6162q-.0135.4855-.0276.9724-1.5186.0289-3.0392.0572c-.01-.31-.02-.62-.03-.9295,1.4982-.1587,1.5472-1.6535.0435-1.6735.0042-.3761.009-.7536.0138-1.13m-18.7885,1.9619q.3384.439.6769.8792a29.8024,29.8024,0,0,1,13.4652-1.3063c-.0918-.3775-.1836-.7536-.276-1.1311a32.8131,32.8131,0,0,0-13.8661,1.5582" fill="#fcb813" fill-rule="evenodd"/>
          <path d="M226.3414,85.1653V131.16h-.0055a31.359,31.359,0,0,1-10.0534,22.4143,35.2284,35.2284,0,0,1-24.2175,9.4868v.0013h-.0007v-.0013a35.23,35.23,0,0,1-24.2176-9.4868A31.3606,31.3606,0,0,1,157.7934,131.16h-.0048V85.1653Zm-44.494,53.02a1.1778,1.1778,0,0,0,.343.7474q.7152.2588,1.4326.5162l.2215-.5258c-.6521-.243-1.345-.4962-1.9971-.7378m-6.6684-29.2131a.8395.8395,0,0,1-.58,1.4464c-.0214,0-.0428-.0007-.0642-.0028h-.0069l-.0007-.0006a.8342.8342,0,1,1,.6473-1.4465Zm-.1781-.3955a1.0731,1.0731,0,0,1,.4383.3244.8961.8961,0,0,1,.1221.1663l3.6237-3.64a1.1141,1.1141,0,0,1-.5355-.5817c-.0131-.0255-.0255-.0525-.0366-.0787l-3.7169,3.7548c.0352.018.07.0366.1049.0552m-.9737,1.9185a1.0914,1.0914,0,0,1-.4209-.4907,3.3037,3.3037,0,0,0-.6584.52,4.4116,4.4116,0,0,1,.4334.5527,2.3549,2.3549,0,0,0,.6459-.5817m-.4934-.7412a1.1266,1.1266,0,0,1-.0145-.1745,1.0537,1.0537,0,0,1,.04-.2892,12.9424,12.9424,0,0,0-2.27-1.668c-.1891-.1007-.3526-.1477-.5086.0269a5.9724,5.9724,0,0,0-.8812,1.0787,1.24,1.24,0,0,0,.0283,1.3063c.218.3285.118.22.0759.5852a1.719,1.719,0,0,0,.3057,1.4271.5551.5551,0,0,0,.5452.2147.67.67,0,0,0,.5237-.5811c.0863-.6942.6881-1.0186,1.2671-1.3747.2981-.1835.5976-.3657.8888-.5514m.1256-.7045a1.0792,1.0792,0,0,1,.6328-.5052,7.963,7.963,0,0,0-2.6541-1.9,1.2383,1.2383,0,0,0-.62.5969,7.9754,7.9754,0,0,1,2.6417,1.8081m6.0218-5.7279h.0172a3.1145,3.1145,0,0,0,1.17-2.1779.444.444,0,0,0-.2208-.1353c-.1774-.0538-.38-.0421-.5245-.2118a1.5537,1.5537,0,0,1-.2042-.815.9248.9248,0,0,0-.1836-.4976,2.3854,2.3854,0,0,0-1.3747-.78,4.2831,4.2831,0,0,1-1.55-.6149c-.1243-.0862-.27-.2422-.4313-.13a.1835.1835,0,0,0-.0766.1718.6662.6662,0,0,0,.2367.3472,6.2911,6.2911,0,0,0,1.4609.91,1.3716,1.3716,0,0,1,.6894,1.0124.54.54,0,0,1-.4962.5858,1.2415,1.2415,0,0,0-1.0137.3513,11.4054,11.4054,0,0,1,2.4691,1.9847Zm.3312.05a1.1717,1.1717,0,0,1,.1643.067.9928.9928,0,0,1,.54.5638,3.8037,3.8037,0,0,0,1.3312-2.6155,1.534,1.534,0,0,0-.9723-.1946,3.1864,3.1864,0,0,1-1.0628,2.1793m.766.8875a1.106,1.106,0,0,1,.0138.1739,1.1452,1.1452,0,0,1-.0193.207,4.599,4.599,0,0,1,1.28,3.4567c.2091.1.4347.2008.6438.3016a2.1131,2.1131,0,0,0-2.2614.728,5.6246,5.6246,0,0,1-.7446,4.2227,32.5153,32.5153,0,0,0,10.9732,1.0386c-.11-6.4517-2.3022-11.6184-8.3944-12.9013a4.4961,4.4961,0,0,1-1.4906,2.7728m-.0752.6107a1.11,1.11,0,0,1-.5845.5845,5.3722,5.3722,0,0,1,.9475,2.8626c.2381-.0635.4893-.1215.74-.1795a4.3607,4.3607,0,0,0-1.1028-3.2676m-.844.66a1.0873,1.0873,0,0,1-.178.0137,1.1227,1.1227,0,0,1-.2512-.0282c-1.2477,1.2559-2.5334,2.5278-3.7824,3.7831a.5212.5212,0,0,1,.0545.2974c.3009.1663.6335.3485.9344.5562q.3384-.3043.677-.61a.4848.4848,0,0,1-.2436-.2968c1.5741.2719,2.888.11,3.732-.8378a4.2047,4.2047,0,0,0-.9427-2.8776m-1.2815-.9683a1.1512,1.1512,0,0,1-.0076-.129,1.1122,1.1122,0,0,1,.02-.21,7.5562,7.5562,0,0,0-3.0046-2.0178c-.2533.2532-.5149.512-.7743.7694-.2485.2471-.8482.648-.62,1.0545a.4676.4676,0,0,0,.766.0621c.3022-.3126.4465-.7584.7315-.8957.3409-.1657.737-.0594,1.2829.3519.2091.1574.1877.1622-.0214.234a1.7091,1.7091,0,0,0-.755.6376c-.8322,1.051-1.5775.3361-2.289-.3947a17.48,17.48,0,0,0-2.07,2.3808,8.79,8.79,0,0,1,2.74,2.0123c1.2911-1.2684,2.7093-2.5865,4.0025-3.8549m.0973-.6a1.1139,1.1139,0,0,1,.6673-.5873,8.7249,8.7249,0,0,0-2.5319-1.942,1.4521,1.4521,0,0,0-.9841.5473,8.4835,8.4835,0,0,1,2.8487,1.982m1.0062-.343a.8161.8161,0,1,1-.6045.27,1.0084,1.0084,0,0,1,.5624-.2684c.0138-.0007.0276-.0014.0421-.0014m28.8019,37.112a5.88,5.88,0,0,0,2.073,2.8522q-.1066.22-.2139.44c1.8418-.5245,2.1731.9875,1.2076,2.0854,1.4389-.8564.86-2.5319-.6921-2.652a8.2156,8.2156,0,0,1-2.3746-2.7259m-20.7416-11.9276a2.154,2.154,0,0,1,1.6707.1387,6.5237,6.5237,0,0,1-1.7839,3.2345,24.924,24.924,0,0,1-2.1517,2.1013,11.3909,11.3909,0,0,0-2.1365,2.3553c-.1615-.1311-.3078-.2615-.4707-.392a1.6023,1.6023,0,0,0,.0111-.7115q2.4315-3.3631,4.861-6.7263m-3.4636-37.4923h-3.1268V90.2865a1.8243,1.8243,0,0,0-2.0075,1.1311,2.3863,2.3863,0,0,0,.0469,1.82,1.9275,1.9275,0,0,0,1.9606,1.0441v-.9779h2.92a4.0767,4.0767,0,0,0,1.0193,1.3636c.0531.0394.0717.1125.0559.22a16.3287,16.3287,0,0,1-1.4886,2.6313c-.1035.09-.08.1449.069.1657a37.8707,37.8707,0,0,0,3.9957.0959.2558.2558,0,0,1,.2746.1525,8.0769,8.0769,0,0,0,.7633,1.3636,1.7555,1.7555,0,0,1-.2526.1981,7.3879,7.3879,0,0,1,.7577,2.309,9.0468,9.0468,0,0,1,1.79,1.1987l.2118-.1159a21.61,21.61,0,0,0,2.7521,3.0689.9.9,0,0,1,.2678.5341c.0821.3906.1794.7791.2877,1.1649.4334,1.5451,1.6273,4.7126,1.6445,6.1218-1.1345.1753-2.2366.3582-3.35.4341a6.347,6.347,0,0,0-.6287-2.8874,2.6341,2.6341,0,0,0,.5252-.6266c-.8578-.6928-.394-1.4657-1.0489-2.142a2.3363,2.3363,0,0,0,.3036-.51c-.9268-.4748-.6811-1.864-1.46-2.356-.9517-2.1186-3.189-3.6513-5.1392-4.7251a.5248.5248,0,0,0,.0276-.2616,8.3368,8.3368,0,0,0-2.0109-.4823,1.096,1.096,0,0,0-.0759-.3941,7.634,7.634,0,0,0-3.14-.3478,2.9818,2.9818,0,0,0-1.1235-.9233c-.8433-.38-1.9184-.2436-2.5354-1.05a1.6984,1.6984,0,0,0-.5679.4072c-.205.2677.2836.7294.43.9551a4.9024,4.9024,0,0,1-1.071-.4493.7021.7021,0,0,0-.0649.8074,4.2135,4.2135,0,0,0,.8226.7115c-.5831.2892-1.2249.646-1.8087.9351a3.0629,3.0629,0,0,0,1.0406.8923c-1.3139,1.5155-2.6472,3.0026-3.9611,4.5181a1.74,1.74,0,0,0-.81,1.0986,5.7622,5.7622,0,0,0-1.187,1.4913,1.0957,1.0957,0,0,0,.0891,1.0731.7885.7885,0,0,1,.1111.7288,2.0728,2.0728,0,0,0,.3305,1.483.8906.8906,0,0,0,1.1656.3982.7272.7272,0,0,0,.5652-.6073,1.805,1.805,0,0,1,1.0889-1.3126c.0635.0759.4148.4693.4148.5652,0,.13-.48.4617-.5831.5507.0807.1366.1608.2733.2415.41.0614.1049.0856.1656-.0138.2533-.2961.2636-.3713.3457-.2132.6646a.6082.6082,0,0,0,.8329.3415,7.4051,7.4051,0,0,0,1.4989-.4423,2.4133,2.4133,0,0,0,1.14-1.7605c.4065.4521.42.9041-.1483,1.8088-.2071.383-.4307.7667-.6232,1.15a1.2464,1.2464,0,0,0-.8488,1.7556,1.0817,1.0817,0,0,0,1.0517.6018,1.1763,1.1763,0,0,0,.8654-.4079,1.3825,1.3825,0,0,0,.2539-1.1787q.792.2081,1.5838.4141c-.1187.2339-.2388.4686-.3575.7025a3.1615,3.1615,0,0,0-2.1165,1.6452,16.204,16.204,0,0,1-1.3284,2.0054,4.72,4.72,0,0,0-2.4637-1.3829,1.6135,1.6135,0,0,0-1.4016.0434,58.9814,58.9814,0,0,0-7.7615,4.7424,2.8874,2.8874,0,0,0-.6024.7984c-.2084.3906-.3775.8206-.5611,1.2256-.6052,1.3388-1.1228,2.9516-1.757,4.3815.156.4458.312.8226.4679,1.2677q.6957-.234,1.3919-.4679a9.315,9.315,0,0,0-.3864,1.3767,49.1758,49.1758,0,0,0,.4941,6.0232c.2891.2753.5534.5769.8426.8523q1.9286-2.1562,3.8576-4.3124a9.2382,9.2382,0,0,0-1.1835-1.0863c-.2394-.1877-.4706-.1994-.6935-.356s-.1643-.5011-.0994-.726c.207-.7122.991-.6542,1.2449.3223a2.14,2.14,0,0,0,.9-1.7432c-.002-.2312-.0821-.4638-.0635-.6929a.5039.5039,0,0,1,.1843-.36,13.0755,13.0755,0,0,1,2.41-3.229,1.5968,1.5968,0,0,1,2.66.6515,5.4739,5.4739,0,0,1,.5776,1.9433,48.3108,48.3108,0,0,0,3.55,4.6188c.3575.3961.5045.5645,1.0869.5541.392-.0062.7846-.0138,1.1773-.0207a.67.67,0,0,0,.2057-.0766,2.9064,2.9064,0,0,0,.552-.5983.3748.3748,0,0,1,.3168-.1242c1.0931.4182,1.9737.6356,2.347.8357.2981.1615.1636.3368.0048.5611a1.0575,1.0575,0,0,0-1.0172.8329,7.68,7.68,0,0,0-5.7574,3.3c-.2174.2706-.3823.4307-.0725.6777a2.7046,2.7046,0,0,0,1.1062.5845c.3685-.4913,1.1967-1.3774,1.9371-1.1455.0138.1559.0193.3975.0332.5541q2.1758.2122,4.3538.4272l.1235-.5659,1.35.4037c.1008-.2022.2319-.5051.3334-.7073l2.8845.9882-2.0992,1.5348,3.3173-.125,2.3429,3.1131-.4321-3.9149,2.6493-1.68-3.2165-.0207-1.8529-2.4844.0283,2.2539-2.9944-1.049a4.4551,4.4551,0,0,1,1.8633-1.7011,37.72,37.72,0,0,0,6.4593,1.0083c.0676,2.0151.07,4.07.138,6.0846.0718,2.1324.2643,4.1454,1.8205,5.7885,1.2836-1.4423,1.5023-3.9,1.5023-5.74v-6.0936c.4341-.0366.6163.2305.8289.7212.17.383.1725.737.7032.5148a4.4985,4.4985,0,0,1,1.7052-.3575c.3085-.0028.3581.107.4134.4251a5.37,5.37,0,0,0,.5714,1.8156,2.1982,2.1982,0,0,0,.6093.6991c.7322.5583,1.6983.9358,2.6286,1.4961,1.1531.6943,2.3815,1.7943,2.3815,3.2559a2.7768,2.7768,0,0,1-.0607.5631,3.0967,3.0967,0,0,1-.2229.6467,21.9815,21.9815,0,0,1-1.1559,2.0137c-.1311.1967-.2616.3906-.3879.5824-.2091.3154-.3574.6335-.5431.9579a2.05,2.05,0,0,1-.6252.6763c-.7529.55-1.6714,1.09-2.5271,1.6431a11.3064,11.3064,0,0,0-2.2974,2.1531,13.93,13.93,0,0,0-1.0986,1.5624c.0083.3719.018.7439.0269,1.1165h2.396l.0145.7716h5.7044a8.1719,8.1719,0,0,1,.02-1.2436c.0676-.6369.2608-1.6383,1.1338-1.5182a1.5426,1.5426,0,0,1,1.0911.971,4.8753,4.8753,0,0,0,1.05-2.111,3.4272,3.4272,0,0,1,.6-1.4955c1.2373-1.8239,2.3442-3.7389,3.5988-5.5967.3568-.5017.6908-1.0034,1.0414-1.5058a1.2637,1.2637,0,0,0,.2967-.5879,3.6448,3.6448,0,0,0-.6107-1.7743c-.2043-.334-.5549-.2953-.89-.3781a3.6525,3.6525,0,0,1-.9324-.3692,2.3064,2.3064,0,0,1-1.3636-1.9289,2.6579,2.6579,0,0,1,.3306-1.0213c.6245-1.2311,1.5975-2.3284,2.3083-3.5506a3.6971,3.6971,0,0,0,.4445-2.0419,18.9893,18.9893,0,0,0,.0089-1.982c.0028-.107.049-.1518.1553-.0662a.6181.6181,0,0,1,.1553.3119,5.0406,5.0406,0,0,0,1.1379,1.83,7.3956,7.3956,0,0,0,2.2111,1.72c2.2173,1.1732,4.88,1.3616,6.2592-1.2463a5.9676,5.9676,0,0,1-2.7224.38,4.1388,4.1388,0,0,0,2.7127-2.238,6.8863,6.8863,0,0,0,.5342-2.5485,4.9544,4.9544,0,0,1,.4823-2.2615,1.0506,1.0506,0,0,0-1.1034-.1525c-.59-2.7362-3.0854-4.2986-3.4988-6.2958a1.79,1.79,0,0,0-.7025.7716,5.9225,5.9225,0,0,1-.9365-6.9707c-2.6451.8122-3.514,2.6458-3.5864,6.4358a8.3517,8.3517,0,0,1-.32-3.4849,4.8469,4.8469,0,0,0-1.4941,3.79,4.4,4.4,0,0,0,.6728,2.3456,16.11,16.11,0,0,0,2.3319,2.76c.2263.2326,1.9267,1.8653,1.9267,2.2939.0014.3395-.2829.4444-.5431.5258a3.5425,3.5425,0,0,1-3.0309-.581c-.561-.3575-1.0931-.7943-1.6293-1.19-.7881-.5811-1.5334-1.205-2.287-1.8219-.5376-.4368-1.0165-.9613-1.5741-1.3657a15.4611,15.4611,0,0,0-3.456-1.5693c.5666-1.0379.6673-1.6762.4658-2.1082-.2291-.49-.8488-.7157-1.6259-.9607-.0179-.3809-.0545-.8716-.0717-1.2525a21.75,21.75,0,0,0,4.6878,2.7956c2.9688-3.485,4.41-7.1308,4.2731-10.9042a16.8594,16.8594,0,0,0-2.5927-8.0521c-.9558.1277-1.9047.2823-2.8591.461a2.7172,2.7172,0,0,0-2.2062-.8184,1.8657,1.8657,0,0,0-.0394-.7481c-.2857.0663-1.0151.1435-1.1931-.1981-.2188-.42.7149-1.3857.9461-1.699a3.2432,3.2432,0,0,0,.7032-1.218,2.4354,2.4354,0,0,0-.0669-1.2622,5.2462,5.2462,0,0,0-.9834-1.6852,22.3536,22.3536,0,0,0-1.52-1.7459,15.12,15.12,0,0,0-3.0351,1.051,3.2116,3.2116,0,0,1-.6024-.5687c-.8226,1.0987-1.6983,2.1863-2.6728,3.2518a4.01,4.01,0,0,0,.9192.0621,2.886,2.886,0,0,1-.4789.971.2835.2835,0,0,0-.0276.3981.2018.2018,0,0,1,.07.2623c-.0372.0731-.0566.0821-.0938.1559a.2828.2828,0,0,0,.1062.354c.08.1394-.0289.2464-.0476.4148-.0159.1532.0331.1284-.0642.2443a.27.27,0,0,0-.07.1836c0,.1469-.0648.1407-.2028.15a.7629.7629,0,0,0-.3554.09c-.3651.2119-.3058.9151-.2506,1.2594a35.0356,35.0356,0,0,1-3.1834-2.1213c.1436-.1056.2857-.2112.4279-.3168a5.3843,5.3843,0,0,0-1.1442-.73,7.5546,7.5546,0,0,0-.4672-1.4885c-.1387.0786-.2933.1911-.4306.2691-.1711-.3671-.323-.7694-.4934-1.1359.2346-.2636.4685-.541.7032-.8274-1.1345-.1229-1.4375-.8482-1.1711-1.9834,6.5393,0,13.0345-.207,19.5746-.207a11.7941,11.7941,0,0,0,2.356-.2277,6.5677,6.5677,0,0,0,2.8252-1.3561,8.25,8.25,0,0,0-1.5106-.9233,5.7569,5.7569,0,0,0-1.3132-.4272,35.4366,35.4366,0,0,0-4.9032-.2091q-5.9386-.0651-11.8772-.1352c-1.7122-.0276-3.4505-.0463-5.164-.0739.0027-.2636.0041-.5272.0076-.7908.0048-.4672-.0725-.6881.334-.982a2.0435,2.0435,0,0,1,.786-.33q-.7154-.8126-1.432-1.6259a4.6133,4.6133,0,0,0-1.826,3.4326,1.4732,1.4732,0,0,1-.9944-.6425c-.2091-.2146-.4886-.352-.717-.0676a3.4533,3.4533,0,0,0-.2457.4078c-1.01.1994-2.1034.51-2.3477,1.3664m-9.5109,13.0863a1.1025,1.1025,0,0,0,.6583-.5611.7089.7089,0,0,0,.597.4521c-.5776.6735-.9565.5051-1.2553.109m3.1579-4.6851c-.4569-.3768-1.5272-.5-2.1269-.9019-.3181-.109-.354.1166-.1974.3174a4.2538,4.2538,0,0,0,1.1139.8116q.6045-.1149,1.21-.2271m-1.9758,1.7432a1.0543,1.0543,0,0,1-.8357-.394c-.089-.0884-.1042-.1649-.0179-.2146a6.3709,6.3709,0,0,1,2.8294-.8992.5015.5015,0,0,1,.43.1642.39.39,0,0,1,.0152.5321.4913.4913,0,0,1-.3444.1463,3.2463,3.2463,0,0,0-1.1738.3305,5.5772,5.5772,0,0,1-.9027.3347m-5.3958,7.6125c-.1312.118-.0056.2774.138.1759.1884-.1863.3844-.287.6-.1152a.4539.4539,0,0,1,.1863.3975.3412.3412,0,0,1-.2077.33,1.0706,1.0706,0,0,1-.4037.0745c-.1311.01-.1235.1408.0145.1532a.9505.9505,0,0,0,.4133-.0649.595.595,0,0,0,.332-.35.6485.6485,0,0,0-.1373-.6065c-.243-.3209-.5714-.2271-.9351.0055m3.8162,1.5879a2.5527,2.5527,0,0,1-1.051,1.4872.4563.4563,0,0,1-.325-.3506,6.4736,6.4736,0,0,0,1.1855-1.218,1.0325,1.0325,0,0,0,.19.0814m6.4918-19.8734v2.9888a1.4545,1.4545,0,0,1-1.4879-1.6369,1.377,1.377,0,0,1,1.4879-1.3519m.2339.895v1.1987h4.6989a1.8353,1.8353,0,0,0-.4141-1.1987Zm-6.4559,19.006a1.7021,1.7021,0,0,0,.6494-.2346,1.597,1.597,0,0,1,.57.4513,2.2446,2.2446,0,0,1-1.4409,1.9647c-.2988.0973-.6142.1635-.9171.2464a.5558.5558,0,0,1-.3734.0151.3123.3123,0,0,1-.2132-.36c.0421-.1394.196-.1766.3105-.2367a3.0172,3.0172,0,0,0,1.4147-1.846m.7909-.3568a1.6243,1.6243,0,0,0,.2491-.4672,2.4656,2.4656,0,0,1,1.6673,2.6976,4.8728,4.8728,0,0,1-.6549-.2519,2.4369,2.4369,0,0,0-1.2615-1.9785m1.425.0476a3.1035,3.1035,0,0,1,.7433,2.2815c.5237.2222,1.1476.3989,1.6942.5755a4.74,4.74,0,0,0,.777-3.8521,4.66,4.66,0,0,1-2.45.3354c-.2229.198-.5411.46-.7647.66m-1.3581,4.1392a.8509.8509,0,1,1-.8516.8509.8509.8509,0,0,1,.8516-.8509m1.0572-1.9371c-.28.5052-.5789,1.0683-.8591,1.5735,5.1281,1.8411,12.1333,2.13,21.3536.7887.3755-.06,1.0421-.0952,1.2629-.4078a.3415.3415,0,0,0-.0214-.4845c-.3057-.34-.9-.1725-1.296-.1131-6.3627,1.1545-14.5969,1.2345-20.44-1.3568m2.2132,2.8046c-.2567.708-.86,1.2007-1.0338,1.9081.7163.0607,1.73-.7142,2.3629-.247a6.6738,6.6738,0,0,0-2.9971,1.06c.0055-.6376.57-1.06.5873-1.5548-1.6038.3161-2.4333,3.091-3.6755,4.4774a39.5469,39.5469,0,0,1,14.29-1.6742,4.7826,4.7826,0,0,1,2.3539-2.8791c-.0152-.169-.0228-.3209-.0387-.4892a60.9267,60.9267,0,0,1-11.8489-.6011M180.32,99.8347c-.2891.9075.5569.9889,1.1835,1.0945,5.4753.9316,9.2528,4.4891,9.4709,13.4389.4831-.0386,1.02-.0717,1.5037-.11-.0365-1.4306.0145-2.7832-1.1994-3.3725.4017-.1277.9531.3678,1.1049-.1663-.4355-.2188-.5314-.7909-.628-1.3008-.1725-.9137-.9427-.9317-.9779-1.3057a.6875.6875,0,0,0,.8806-.0055c-.64-.2353-.74-1.1449-.9875-1.6728a1.5681,1.5681,0,0,0-1.0041-.8095,1.1165,1.1165,0,0,1,.5286-.03,12.042,12.042,0,0,0-3.4753-3.5174,4.84,4.84,0,0,0-1.1553-.6618c-.3947-.1235-.737.0276-1.1234-.0345.2512-.0945.5258-.1539.6217-.4617a5.46,5.46,0,0,0-2.1185-.3692.9113.9113,0,0,0,.1159-.4382,5.9245,5.9245,0,0,0-2.74-.2774m10.544,16.102c.5231-.0586,1.0351-.1014,1.57-.1566-.0152.147-.04.2429-.0545.3906a4.3534,4.3534,0,0,0-1.492.2236c-.0076-.15-.0152-.3078-.0235-.4576m1.91-.1677q1.7721-.2028,3.5436-.4044a7.3806,7.3806,0,0,1-2.1434,1.8322,2.3438,2.3438,0,0,0-1.4761-.9854c.0262-.1318.05-.3126.0759-.4424m3.8135-.34c.1228-.0124.2463-.0255.37-.038a2.4222,2.4222,0,0,0,.7087.6163,10.6036,10.6036,0,0,0-1.4948,1.7059,1.8481,1.8481,0,0,0-1.759-.3409,6.2713,6.2713,0,0,0,2.1752-1.9433m-2.23,2.2759a3.9611,3.9611,0,0,1,.1249.9165,7.63,7.63,0,0,1,1.3484-.7964,1.5392,1.5392,0,0,0-1.4733-.12m-.1767,1.1491a19.6906,19.6906,0,0,0-4.4829,5.7947,4.51,4.51,0,0,1-1.2684-2.699c-.3-2.33,1.2084-6.0066,4.1234-5.4586a2.0449,2.0449,0,0,1,1.6279,2.3629m-4.14,5.9465a3.8328,3.8328,0,0,0,1.0276,1.6148,15.8264,15.8264,0,0,1,1.8322-2.3311q-.0146-1.4688-.03-2.9371,1.1222-.01,2.2463-.02a10.6475,10.6475,0,0,1,.8874-3.1261c-2.6023,1.3043-4.7913,4.2413-5.9638,6.7995m1.2712,1.8357a2.06,2.06,0,0,0,1.6334.7549c-.0117-.9406-.0117-1.9281-.0228-2.8687a9.1929,9.1929,0,0,0-1.6106,2.1138m-3.5575-.5459a3.8386,3.8386,0,0,1,1.9813-1.1145c.7308,1.3119,1.5134,2.563,3.21,2.7514a1.8279,1.8279,0,0,1-1.2056.8944,14.835,14.835,0,0,0-3.9853-2.5313m5.1909,2.1945q.0177,1.4461.0345,2.8908a1.86,1.86,0,0,0-1.1,1.4175,5.6975,5.6975,0,0,1-1.7735.07,10.2189,10.2189,0,0,0,.846-2.2525c.1346.0338.27.07.4051.1035a2.5464,2.5464,0,0,0,.3823-1.5437,4.6358,4.6358,0,0,0,1.2056-.6853m.0463,3.3677q.0237,2.4906.0462,4.9811a30.6962,30.6962,0,0,1-6.1943-.9192,22.3155,22.3155,0,0,0,2.9729-2.6921,19.9854,19.9854,0,0,0,2.3753.0228c.038-.7929.332-1.218.8-1.3926m-5.4063-5.2723a3.2446,3.2446,0,0,0,.2781,2.0785c1.0745-.1684,2.1828.0877,3.376,1.6445a1.72,1.72,0,0,0,.1739-1.2815,9.3431,9.3431,0,0,0-3.828-2.4415m-4.1626,10.9366q.4389.1594.8778.3209c.7984-1.3912,2.6141-2.1959,4.0253-3.545a7.0543,7.0543,0,0,0,2.3532-4.131,1.271,1.271,0,0,0-.9882-.9074c-.6935,2.5181-2.5692,4.2482-4.4539,5.901a5.303,5.303,0,0,0-1.8142,2.3615m3.8866-9.5323a4.23,4.23,0,0,0,.2222.74c-1.61,2.2421-3.2055,4.4642-4.8162,6.7063a1.4156,1.4156,0,0,0-.5472-.44c1.7169-2.345,3.4235-4.6617,5.1412-7.0059m-13.5721-6.3406a5.6809,5.6809,0,0,1-.3755.6114c.36.4244.6474.7018.9876,1.0779a37.652,37.652,0,0,1,13.6915-1.6507,6.2331,6.2331,0,0,1,.1677-1.7832,39.1106,39.1106,0,0,0-14.4713,1.7446m.8357,1.9536c.1407.1954.2815.39.423.5859a34.5585,34.5585,0,0,1,13.2319-1.3525q-.09-.4141-.1808-.8282c-3.3269-.4506-10.5571.216-13.4741,1.5948m.7066.8661c.3.4079.4693.8875.9793,1.0793a7.7,7.7,0,0,1,.7481-1.6058,13.2243,13.2243,0,0,0-1.7274.5265m1.3078,1.2864a5.39,5.39,0,0,1,.7584-1.9282,30.3759,30.3759,0,0,1,10.7075-.6328l-6.4179,10.74c-.7963-.2581-1.6293-.5417-2.4257-.8a1.6974,1.6974,0,0,1,1.2084-1.0469c.7812-.1877.6611-.4341-.1373-.2609-.4521.0987-1.0131.4355-1.7142,1.5666-.1629.2643-.187.43-.5335.4816h-.9813a.8612.8612,0,0,1-.8467-.3588q-1.7246-2.2473-3.4505-4.4925a5.0616,5.0616,0,0,0-1.2388-2.8315,1.7827,1.7827,0,0,0-2.6375.2319,19.1389,19.1389,0,0,0-2.5133,3.2393.6533.6533,0,0,1-.03-.6315c.0276-.0766.0476-.1511.0138-.1683-.0807-.0421-.2194.218-.2519.2939-.2374.5487.1794,1.09.2374,1.7232a1.14,1.14,0,0,1-.5072,1.1414c-.8143-1.3967-1.8992-.1221-1.6811,1.0117a20.7117,20.7117,0,0,0-2.387,1.0779,4.9383,4.9383,0,0,1-.067-1.719,1.2739,1.2739,0,0,0,.5845.3188,1.554,1.554,0,0,0,.2988.0449c.1595-.0042.1733-.0814.0932-.1442a1.9776,1.9776,0,0,0-.3147-.1187.8779.8779,0,0,1-.48-.7536c-.1442-.9827.7253-2.0758,1.3919-2.9937,1.4651-2.0212,2.993-3.9653,4.5423-5.7775a1.1157,1.1157,0,0,0,.4658.657c.3554.2429.3657.0649.1463-.1642a.9336.9336,0,0,1-.3057-.6384,1.0671,1.0671,0,0,1,.198-.5576,1.9545,1.9545,0,0,1,1.4789-.512,6.51,6.51,0,0,1,2.561.2015,4.2165,4.2165,0,0,1,1.2511,1.0227,32.8346,32.8346,0,0,1,2.2449,2.9115,3.2368,3.2368,0,0,1,2.1524,3.5271c-.1035.7612.0117.8426.1987.0131a3.4277,3.4277,0,0,0-1.6113-3.674M161.83,134.2684a21.5125,21.5125,0,0,1,2.543-1.198,3.3419,3.3419,0,0,1,.8791.6328c-1.0137,1.12-2.073,2.28-3.0861,3.4008a16.1274,16.1274,0,0,1-.336-2.8356m-.3258-7.6255a10.2984,10.2984,0,0,0-1.0572,2.6313c1.501-.4327,2.5761-.6245,3.3939-1.9523a3.2217,3.2217,0,0,0-2.3367-.679m.1208-.403a5.7163,5.7163,0,0,1,2.4126.68c.236-.2795.4568-.5624.6859-.8433a2.585,2.585,0,0,0,.2333-.294c.1277-.2181-.0283-.34-.0573-.5528a.5072.5072,0,0,1,.2153-.4948c.2291-.1773.5224-.2222.766-.39a3.1825,3.1825,0,0,0,.6363-.6c.4541-.5541.94-1.1717,1.394-1.7266a2.197,2.197,0,0,1,1.66-.7612,12.9091,12.9091,0,0,1,1.9253-.0724,2.32,2.32,0,0,1,1.5617.5893q.5384-.825,1.0759-1.6507a3.7783,3.7783,0,0,0-2.3436-1.4174c-.8157-.1871-1.612-.0746-1.49.9958a.278.278,0,0,1-.0083.2236c-.1207.1856-.2339-.2264-.2532-.2926-.0477-.1622-.0773-.3244-.1084-.4866a72.83,72.83,0,0,0-6.51,3.946c-.5562.3975-1.3436,1.2374-.4,1.7818.1483.0546.1311.1512-.05.1181a1.2945,1.2945,0,0,1-.6383-.3541,7.5139,7.5139,0,0,0-.7067,1.6011m20.2426,7.5551.5328.2015,1.3091-1.7563-.7722-.0683Zm5.3593-6.3633-3.38,4.5491-.7563-.05,5.224-8.8512a5.6216,5.6216,0,0,0,1.0683,1.6983,5.205,5.205,0,0,0-2.0558,1.29,3.5711,3.5711,0,0,0-.1,1.3644m-5.3793,9.6717a2.319,2.319,0,0,0-.0711.8184l5.9825,2.1234-2.1083,1.3043,2.7238-.2933,1.826,2.699-.5451-3.2352,2.2593-1.2635-2.6327.1318L187.9,137.2145l.1712,2.042q-3.1127-1.0765-6.224-2.1531m-.0835-2.07a.8478.8478,0,1,1-.8481.8474.8477.8477,0,0,1,.8481-.8474m-1.06,1.0275a5.1645,5.1645,0,0,1-2.7031,2.4678,3.0705,3.0705,0,0,0-2.1786,1.1442,1.0174,1.0174,0,0,1-.5155-.245c-.2374-.1974-.1815-.2684-.0063-.4948a6.451,6.451,0,0,1,5.4035-2.8722m-2.5389,2.8115c.0069.1221.0132.2429.0207.3643q1.8654.1771,3.7321.3541c.0469-.1415.0945-.283.1415-.4244a2.2007,2.2007,0,0,1-.5086-2.1552,1.1446,1.1446,0,0,1-.6536-.3761,7.4154,7.4154,0,0,1-2.7321,2.2373m4.5416-2.3146a1.6205,1.6205,0,0,1-.4079.3568c.2229.1.4472.2.67.2995.069-.1208.138-.2429.2063-.3651-.1552-.0959-.3119-.1939-.4685-.2912m10.564-15.0586q1.3735-.0207,2.7465-.04v.8081a.9489.9489,0,0,0,0,1.8977v.7129c-.9164.0048-1.8536.0138-2.7707.02v-.6569c1.2953-.107,1.5293-1.7943.0242-1.91Zm.0041,1.1794v1.2359c.9917.0428,1.0993-1.2132,0-1.2359m2.7224-.12v1.2594a.6307.6307,0,1,1,0-1.2594m-2.7417,2.6106h2.7624c.029,5.7844.1042,11.6178.1367,17.407.0048.7129.0283,1.4272-.0373,2.1386a8.5955,8.5955,0,0,1-1.1117,3.5747,6.2749,6.2749,0,0,1-1.4713-4.0729c-.0525-.7074-.0449-1.4195-.0538-2.1276Zm5.4773-8.6966a5.8391,5.8391,0,0,0-2.2,3.427,13.3318,13.3318,0,0,0-.2222,3.3394V130.24a3.9249,3.9249,0,0,0,.6888-.8882q-.0207-3.1283-.0421-6.2557a18.3743,18.3743,0,0,1,.0614-2.38,5.6179,5.6179,0,0,1,2.25-3.9632,1.1474,1.1474,0,0,0-.5362-.2809m-.8185-.3512a1.4957,1.4957,0,0,1,.6577.2712c-1.3692.8826-2.17,2.4857-2.4968,4.7437l-.6169-.0083a6.5263,6.5263,0,0,1,2.456-5.0066m-.7391,5.2109q.0228,1.3095.0442,2.62a15.3,15.3,0,0,0,2.11-1.7066,4.6327,4.6327,0,0,0,2.9467-.9123c.1408-.1146.49-.38.4313-.5852-.1131-.3927-2.2828-.2457-2.5906-.2174a8.6632,8.6632,0,0,0-2.9419.8012m.07,3.0551q.0073,1.7182.0152,3.4353a13.5494,13.5494,0,0,0,6.0184-2.6769c.8584-.6729,2.3732-1.913,2.2876-3.15-.0428-.628-.58-.8385-1.35-1.0138a5.53,5.53,0,0,0-1.09-.1456,4.1924,4.1924,0,0,1-3.672,1.7542q-1.1055.8975-2.21,1.7964m1.2063,3.5512a7.8173,7.8173,0,0,0,1.3271-.4327c.6349.2174,1.3878.4278,2.0226.6445a1.3354,1.3354,0,0,0-.3257.7826c-.9909-.3416-2.0316-.6521-3.024-.9944m4.1585.1753a.8409.8409,0,1,1-.8419.8412.8415.8415,0,0,1,.8419-.8412m-5.3924,8.9312a1.2631,1.2631,0,0,1,.2561.4589c.1.2636.18.5072.3754.4569a12.2333,12.2333,0,0,1,1.7852-.3368c.1933-.009.2506-.087.2464-.1953-.0159-.12-.031-.2415-.0469-.3623-.0159-.178-.127-.1919-.2415-.2q-1.1874.0889-2.3747.1787m5.8914-11.34a5.38,5.38,0,0,1,.2222,2.4133,1.1178,1.1178,0,0,1,.2809.343c1.0544.3975,2.0157.7646,3.0378,1.256a11.0306,11.0306,0,0,0-.3471-4.2849c-.2147-.6756-.3989-1.3346-1.16-1.572a12.3756,12.3756,0,0,1-2.0337,1.8446m.63,3.1055a1.17,1.17,0,0,1-.2422.8433c.9234.3478,1.8053.7052,2.7024,1.1055a1.0029,1.0029,0,0,1,.3327-.7915c-.9034-.3686-1.8888-.7881-2.7929-1.1573m3.5672,1.0765a.8816.8816,0,1,1-.8806.882.8837.8837,0,0,1,.8806-.882m-4.07-.02c-.0829,1.8964.13,3.5271,1.2773,4.33q-.0539.5507-.1063,1.0986c-.3981.011-.8129-.0228-1.2111-.0117-1.4216-1.5528-1.5879-3.4733-1.3332-5.5022a1.42,1.42,0,0,1-.3741-.5562c-1.22-.44-2.4181-.775-3.6388-1.1393-.1843.1345-.3693.27-.5528.4044.0021.3491.0062.6983.01,1.0454-.2974.38-.5962.7619-.8929,1.1415v5.8879a16.3079,16.3079,0,0,0,3.182-.0635,2.2235,2.2235,0,0,0-.5659-1.68c-.1076-.0945-.0393-.2753.1939-.0807.8233.76,1.0331,2.7445,1.2912,3.8749a6.5172,6.5172,0,0,0,.3085,1.0579,2.6845,2.6845,0,0,0,1.109,1.229c.4734.2892.9992.5176,1.4878.784.715.39,1.4258.7964,2.1338,1.2277a14.5356,14.5356,0,0,1,1.4885,1.0344,6.1828,6.1828,0,0,1,.9945.9958,2.8211,2.8211,0,0,1,.6714,1.24,1.76,1.76,0,0,1-.1711,1.2394,30.9124,30.9124,0,0,1-1.9357,3.62,3.5222,3.5222,0,0,1-1.0621,1.2822,20.5477,20.5477,0,0,0-3.2931,2.2228,4.9191,4.9191,0,0,1,2.9929,1.54c.6729-1.1373,1.6128-1.3892,2.5948-.2491.866-.9434.5424-1.9468.5658-2.7984a1.3126,1.3126,0,0,1,.3071-.8488c.13-.1587.22-.1242.1063.03a1.3266,1.3266,0,0,0-.1532.9344c.0656.363.1222.3374.283.051q.3551-.6366.7114-1.2732c1.2905-2.0979,2.5631-4.1985,3.92-6.253a1.1065,1.1065,0,0,0,.2415-.9364c-.0524-.1443-.109-.2892-.1621-.4341-.1891-.5072-.1512-.5679-.6977-.7853a4.134,4.134,0,0,1-2.4354-1.6942,1.8636,1.8636,0,0,1,.069-2.1876c.775-1.3029,1.7384-2.679,2.4657-4.0136a18.1332,18.1332,0,0,0-5.1129-3.7231c-.118,1.7135.1084,3.436,1.2173,3.9294.0035.3658.0221.6929.0263,1.0593-.2671.12-.4859.1794-.7522.3-1.41-.8295-2.1214-2.44-1.8088-5.5111a1.8728,1.8728,0,0,1-.42-.5893c-.9985-.4748-1.9729-.8433-2.9694-1.23m3.5829,1.9212c-.1021,2.1856.0525,4.2013,1.599,5.0943l.501-.1752c.0021-.2236.0366-.3858.04-.6087-1.2622-.813-1.287-2.4292-1.2877-4.2393a1.6652,1.6652,0,0,1-.8523-.0711m-4.7327-1.8246a6.2182,6.2182,0,0,0,1.2319,4.9873c.2905.0249.5417.0546.8329.0794q.0217-.3312.0435-.6618c-.9254-.8447-1.2235-2.1869-1.1766-4.3517a1.3041,1.3041,0,0,1-.9317-.0532m-1.8439-2.6575c.5576-.214,1.0186-.5093,1.5389-.7522a3.238,3.238,0,0,1,.1891,1.3532c-.59-.2291-1.138-.3719-1.728-.601m1.8212-.9137a5.29,5.29,0,0,1,.1877,1.4616,1.327,1.327,0,0,1,.8971.1118,4.1241,4.1241,0,0,0-.2629-2.0862,9.0053,9.0053,0,0,1-.8219.5128m5.9873,5.2578a20.0375,20.0375,0,0,1,5.1177,3.7,2.6761,2.6761,0,0,0,.1242-1.2387,30.0289,30.0289,0,0,0-4.8617-3.1945.9692.9692,0,0,1-.38.7336m-1.147-1.9585a1.3162,1.3162,0,0,1,.9227.0642,11.5682,11.5682,0,0,0-.7667-5.0453,6.2573,6.2573,0,0,0-.8205-.3823,13.8462,13.8462,0,0,1,.6645,5.3634m.499-4.8555a15.1407,15.1407,0,0,1,.66,5.0846,1.933,1.933,0,0,1,.3492.6094,28.3429,28.3429,0,0,1,4.9121,3.2158l.0207-2.5913a3.4044,3.4044,0,0,1,.9661,1.2491c2.1476,3.9342,6.4117,5.0812,8.4965,2.9881-1.0145.15-2.1372.3651-2.95-.5521,2.5679.0049,3.8563-1.8529,4.0067-5.3662a2.2452,2.2452,0,0,1,.2319-1.2642c-1.0731-.0925-.1629,2.6431-2.2746,3.05,2.0413-1.0786,1.4492-3.4505.5659-5.0846a15.09,15.09,0,0,0-1.2981-1.9827,7.5419,7.5419,0,0,1-1.2518-1.8964c-.73.9738.9668,2.6224,1.5576,3.31.0207.069.0414.1387.0621.2084a25.9347,25.9347,0,0,1-2.8605-3.5333,6.8147,6.8147,0,0,1-1.0248-6.106c-2.073.688-2.6065,3.2621-2.4409,6.6932a4.4843,4.4843,0,0,1-1.0593-3.6223c-.8895,1.677-1.1214,3.2738-.383,4.6658.9365,1.76,3.2035,3.554,4.4249,5.106.5625.6252.32,1.0765-.365,1.345a3.8918,3.8918,0,0,1-3.5733-.5307,55.7793,55.7793,0,0,1-5.4118-4.1889,8.7458,8.7458,0,0,0-1.3615-.8074m-1.1711,19.0149c1.0972.6846,2.0889,1.4727,2.1261,2.621a3.2762,3.2762,0,0,1-.3346,1.365,27.5389,27.5389,0,0,1-1.8461,3.3946,3.7025,3.7025,0,0,1-1.1069,1.029,14.7683,14.7683,0,0,0-3.5892,2.5471,7.3375,7.3375,0,0,0-1.405-.9454,12.7267,12.7267,0,0,1,3.0785-2.1732,3.3028,3.3028,0,0,0,1.37-1.4457q.7846-1.3944,1.572-2.7887a3.9185,3.9185,0,0,0,.5293-1.267,4.0346,4.0346,0,0,0-.394-2.3367m-4.1662,11.01a7.6872,7.6872,0,0,0-1.6555,2.2076q2.359.027,4.7182.0566c.2422-1.4754-1.9847-2.1206-3.0627-2.2642m-.7384.2747a11.6013,11.6013,0,0,0-.9357,1.2408c-.7812,0-1.61-.0187-2.3919-.0187a7.6365,7.6365,0,0,1,1.73-2.1882,2.7337,2.7337,0,0,1,1.5975.9661m-1.7342-38.2114a4.5546,4.5546,0,0,0-2.2255,3.9163,12.6939,12.6939,0,0,1,6.4758-.4285c-.0193-.481-.0386-1.0358-.0572-1.5168a15.2785,15.2785,0,0,1-2.2829-2.6c-.5859.1318-1.1166,1.1759-1.91.6293m-1.7984-3.3738a.9143.9143,0,0,1,1.1132-.5708c.3181.0421.6638.0849.9827.1284a16.0436,16.0436,0,0,0,1.3733,2.8335c-.5466.234-.8206,1.0738-1.5859.6832a12.1939,12.1939,0,0,0-1.1179-.6342c-.4127-.1994-1.0014-.2719-1.2636-.6673-.0718-.1276-.0987-.2353.17-.2a1.23,1.23,0,0,0,.9268-.2671c.7585-.6045.0642-1.2656-.599-1.3056m1.3706-7.9872a17.5329,17.5329,0,0,0,.5721,7.1515c-.5521-.0111-1.0407-.2547-1.588-.0076a1.0166,1.0166,0,0,0-.5037.5458c-.1056.42-.7819.421-1.089.4679a34.9271,34.9271,0,0,0-1.0862-4.4007c-.3927-1.3278.637-3.0841,1.2525-4.202a6.3625,6.3625,0,0,0,2.4423.4451m3.0557-.8268q2.5238-.5114,5.0488-1.0234c-.9434-1.3933-4.71-.5783-5.0488,1.0234m-.71-6.4248a2.117,2.117,0,0,1,.5617.2188c-1.0965,2.8135-.5789,4.2282,1.0435,4.6851a2.987,2.987,0,0,0-1.2153,1.5506c-3.9508.9972-5.1019.3665-5.7209-.5521a.8165.8165,0,0,1,.1643-1.2049c.3926-.4071.5168-.1552.9626.047a4.9557,4.9557,0,0,0,2.5424.0338q.2245-.0932-.0111-.1387a3.8183,3.8183,0,0,1-2.7611-.2982.7958.7958,0,0,1-.0814-1.3208c2.5389.432,3.8949-.7688,4.5153-3.0206m-1.9012,7.3109q5.2729-1.0267,10.5426-2.053a14.24,14.24,0,0,1-1.47,17.92c-7.4482-2.7942-9.9119-10.063-9.0727-15.8674m.2878.2871c3.2193-.6487,6.8982-1.376,10.1175-2.0247a14.0768,14.0768,0,0,1-1.44,17.2462c-8.1272-3.16-9.38-11.5847-8.6779-15.2215m.0641.107c3.1324-.6177,6.8831-1.3692,10.0161-1.9882a13.8794,13.8794,0,0,1-1.4589,16.9405,14.0259,14.0259,0,0,1-8.5572-14.9523m4.0178.6383q1.4813-.3208,2.9619-.6425a1.2747,1.2747,0,0,0-.1691.9972c.1014.481.2091.9807.3106,1.4616.52-.0938,1.07-.2077,1.5886-.32a1.3422,1.3422,0,0,0,.95-.7542c.2229,1.0413.4589,2.111.6811,3.1523a1.4479,1.4479,0,0,0-1.0337-.3119l-1.73.3464.4348,2.05c.5382-.1069,1.1345-.1967,1.6652-.3347a1.7065,1.7065,0,0,0,.8881-.6577c.2029.9972.4341,2.0089.6363,3.0061a1.7189,1.7189,0,0,0-1.2208-.1939l-1.5251.3023.3464,1.6a1.3716,1.3716,0,0,0,.7515.9737q-1.6158.3614-3.2324.7246a1.5063,1.5063,0,0,0,.2719-1.2118l-.3305-1.6424-1.85.394a1.9375,1.9375,0,0,0-.9806.71c-.1981-.94-.4527-2.0785-.6494-3.0178a1.9123,1.9123,0,0,0,1.2588.2022l1.7749-.3747-.4645-2.0758c-.6045.1153-1.2539.2843-1.8625.3727a1.2349,1.2349,0,0,0-.9192.7915c-.2112-1.011-.4783-2.1214-.6894-3.1323a1.5783,1.5783,0,0,0,1.1835.2394l1.8432-.3671c-.0676-.47-.1594-.942-.2443-1.4092a1.5383,1.5383,0,0,0-.6452-.8778m2.93,2.0965q-.1884-.8457-.3788-1.6907a1.6318,1.6318,0,0,1,.0531-.786c-.717.1525-1.5251.3181-2.2421.47a1.8618,1.8618,0,0,1,.4313.66q.176.8643.354,1.7266c-.7687.1622-1.5341.3333-2.3042.4865a1.1443,1.1443,0,0,1-.6425-.1028c.1539.6742.3092,1.4547.4637,2.13a1.0878,1.0878,0,0,1,.5777-.4078c.746-.1939,1.5016-.3368,2.2538-.5059q.2837,1.2888.5645,2.5768c-.726.15-1.4519.3113-2.1814.4507a1.4689,1.4689,0,0,1-.7825-.08c.158.6812.2884,1.4541.4471,2.1352a1.4237,1.4237,0,0,1,.7-.4c.7239-.1511,1.454-.2767,2.1814-.4154.1332.6149.2816,1.2256.4,1.8425a1.339,1.339,0,0,1-.1325.9068c.7688-.1808,1.5783-.354,2.3464-.5348a1.5281,1.5281,0,0,1-.4769-.8219c-.138-.59-.2519-1.1849-.3788-1.777q.9574-.2009,1.9143-.4a1.8929,1.8929,0,0,1,.7943.0408c-.1546-.7122-.2892-1.4382-.4431-2.15a1.9516,1.9516,0,0,1-.78.3941q-.9274.1924-1.8549.3843-.261-1.2318-.5252-2.4657,1.0373-.2153,2.0765-.43a1.2852,1.2852,0,0,1,.6514.0911c-.1787-.7136-.3153-1.4761-.4934-2.19a1.4382,1.4382,0,0,1-.8426.5093q-.8747.177-1.7508.3547M200.3813,95.49a5.8005,5.8005,0,0,0,2.877,2.3208.8735.8735,0,0,1,1.0152.0207,1.0814,1.0814,0,0,1,.0786,1.46.867.867,0,0,1-1.64-.48.609.609,0,0,0-.392-.1974c-1.1752,2.1372-.784,4.6947,1.8018,4.3076.4-.0594,1.0428-.1222.9979-.6052a2.5646,2.5646,0,0,1-.8309-.058c-.7839-.2443-.336-1.13-.0269-1.5734.265-.381.6046-.7267.8813-1.0911a1.7709,1.7709,0,0,0,.3706-1.8446,8.7607,8.7607,0,0,0-2.3622-3.1255,7.9507,7.9507,0,0,0-2.7708.8654m-.7563-.2732a27.886,27.886,0,0,1-1.9834,2.3511,10.5725,10.5725,0,0,1,5.2986,1.0469.7785.7785,0,0,0,.3533.7922.6939.6939,0,0,0,.9586-.3568.7417.7417,0,0,0-.2333-1.0682.761.761,0,0,0-.7915.1021,9.3747,9.3747,0,0,1-3.6023-2.8673m-1.3416,2.5954a4.1318,4.1318,0,0,1-.5169,1.0648c-.0952.1312-.17.2933-.0517.4086a.3093.3093,0,0,0,.3016.06c.0552-.0124.1235-.0421.1918-.0559.1442-.03.25.087.3961.009.107-.058.156-.1953-.0276-.3982-.0745-.0683-.0269-.1656.1208-.098a.3438.3438,0,0,1,.1256.42c.5562.0365.7446.39.7646.8868a.6136.6136,0,0,1,.5466.2242c.4271-.2995,1.2518-1.3153,1.0551-1.9122-.1428-.4293-.6942-.4251-1.062-.4707-.0187.0345-.038.07-.0566.1035.0669.0221.2408.0553.25.1291.0083.07-.1442.1049-.3271.12a3.5238,3.5238,0,0,1-.5735-.0014c-.225-.0414-.37-.1643-.1594-.4782-.3023-.0049-.6742-.0049-.9772-.0111m.078,2.2884c.3637.0062.2878.0911.3257.3933a.6839.6839,0,0,0,.2009.4375.4194.4194,0,0,0,.4044.0532,1.1427,1.1427,0,0,0,.532-.3637c.0883-.1194.1056-.236-.0414-.29s-.2553-.049-.3085.0517c-.0179.0331-.0393.2409-.1325.22-.11-.0249-.0289-.176-.0151-.2319.1014-.4292.07-.8274-.5183-.91a2.4,2.4,0,0,0-.8571.0725.4666.4666,0,0,0-.2857.1994c-.23.4072.5114.3637.6956.3672m-.588.3913c.0138.09.11.1532.1029.227-.0035.04-.0366.078-.098.1153-.1242.0621-.1712.1242-.1394.187.0814.1656.4451.187.599.1863.1311,0,.5755-.0117.4706-.2353a.599.599,0,0,1-.178-.3968c-.0221-.167-.0573-.2616-.374-.2989-.2043-.0248-.4127.0173-.3831.2154m-1.8618,3.8852a2.546,2.546,0,0,0,.5355.5907,18.7777,18.7777,0,0,0-1.345,3.0061,5.1553,5.1553,0,0,1-.5811-1.7625,8.508,8.508,0,0,1,1.3906-1.8343m-6.2268-2.7528a12.1113,12.1113,0,0,1,1.3788,1.0365,4.57,4.57,0,0,1,2.1524-2.6617,3.256,3.256,0,0,0-.8743-.4637q-1.3271,1.0444-2.6569,2.0889m2.3118-3.3525a3.2413,3.2413,0,0,1,.2443,1.0276q-1.3374,1.0278-2.6727,2.0551a13.0729,13.0729,0,0,0-.648-1.7853,4.2468,4.2468,0,0,0,3.0764-1.2974m-1.0075-1.1379q.26.561.52,1.1207a3.2668,3.2668,0,0,1-2.4118.9771,5.3209,5.3209,0,0,1-.7992-1.4906,7.5294,7.5294,0,0,0,1.27-.64,3.2,3.2,0,0,0,.7225.6059,4.2477,4.2477,0,0,0,.6984-.5727m-.6818-9.7622q.4451.4462.8916.893a1.38,1.38,0,0,0-.8916,1.365q.0165,2.6448.0338,5.29a1.4052,1.4052,0,0,0,.924,1.365q-.444.471-.8909.9434c-1.96-1.0048-2.2179-8.6372-.0669-9.856m-5.7837,4.0606c.2539.0083.5093.0172.7639.0262.3071.01.48.2477.5977.5293.167.3085.354.17.6059.1118a3.4711,3.4711,0,0,1,.7287-.0725c.34-.0358.29-.8916-.02-1.0358-.2084-.0973-.2519-.27-.3409-.4134a.4319.4319,0,0,0-.2581-.1994,2.1389,2.1389,0,0,0-2.0772,1.0538m-.2685,5.9134c2.1642.136,4.427.2733,5.0778-.7412a11.6829,11.6829,0,0,1-.8447-5.115c.0166-.5389.1739-.6624-.3-.9185-.0876-.0476-.1739-.0966-.2519-.1435q-.2774-.1667-.5369-.36c-.3278-.2615-.4134.0946-.2615.4555a.9063.9063,0,0,0,.53.5217,2.5518,2.5518,0,0,0,.0331,1.0786c.0345.127.0069.2167-.1843.2022-.8571-.1076-1.2739.1139-1.41.5652a2.6324,2.6324,0,0,1-.0759.4c-.04.0711-.1208.0842-.2961-.0379-.0883-.0063-.1767-.0132-.2657-.0194-.2249-.0158-.4506-.0324-.6763-.0483-.2574-.04-.3029.0566-.1345.2864a2.4143,2.4143,0,0,0,2.3035,1.5161c-.011.0449-.0221.09-.0338.1346a4.91,4.91,0,0,1-1.4037-.0331c-.432.7349-.8378,1.5217-1.2691,2.2573m6.3489-6.322v1.1808q11.9311-.0135,23.8622-.0276a4.5684,4.5684,0,0,0-3.2138-.9385q-10.3234-.1077-20.6484-.2147m0,1.4555.0083,1.2352c6.7747-.0621,13.5142-.1242,20.2875-.1856a5.2748,5.2748,0,0,0,3.5975-1.089c-7.9451-.009-15.9489.0483-23.8933.0394m2.3429,7.9492a4.2164,4.2164,0,0,0-1.5292,2.09,13.9887,13.9887,0,0,0,3.0426,3.2773,9.687,9.687,0,0,1,1.345-1.6515c-.3478-.5444.0455-.9267.4865-1.4153-1.1248-.7605-2.2635-1.5162-3.3449-2.3m32.458-14.383h-66.68V130.28h.0042l-.0042.3188v.1208h-.0014v.0158h.0014v.0007h-.0014v.0028a30.4839,30.4839,0,0,0,9.7856,22.2156,34.2645,34.2645,0,0,0,23.5551,9.228v-.0014h.0007v.0014a34.2632,34.2632,0,0,0,23.555-9.228,30.4868,30.4868,0,0,0,9.7863-22.2156v-.0028h-.0014v-.0007h.0014V130.72h-.0014v-.1208l-.0041-.3188h.0041Z" fill="#231f20" fill-rule="evenodd"/>
          <path d="M160.3229,129.6432q.1035.3251.207.6508.72-.2444,1.4416-.4866a7.0732,7.0732,0,0,0,.7853-.98q-1.2172.4079-2.4339.8157" fill="#fcb813" fill-rule="evenodd"/>
          <path d="M162.1068,137.6009l.541.5265,3.3766-3.8-.5265-.4824s-3.3911,3.7707-3.3911,3.7562" fill="#fcb813" fill-rule="evenodd"/>
          <polygon points="200.204 157.399 200.204 157.978 205.176 157.978 205.176 157.381 200.204 157.399" fill="#fcb813" fill-rule="evenodd"/>
          <polygon points="200.194 156.651 200.014 157.192 197.849 157.192 197.849 156.633 200.194 156.651" fill="#fcb813" fill-rule="evenodd"/>
        </g>
      </g>
  </svg>
